<?xml version="1.0" encoding="utf-8"?>
<!-- Generator: Adobe Illustrator 27.9.0, SVG Export Plug-In . SVG Version: 6.00 Build 0)  -->
<svg version="1.1" id="Layer_1" xmlns="http://www.w3.org/2000/svg" xmlns:xlink="http://www.w3.org/1999/xlink" x="0px" y="0px"
	 viewBox="0 0 870 1587" style="enable-background:new 0 0 870 1587;" xml:space="preserve">
<style type="text/css">
	.st0{fill:#FEF0EB;}
	.st1{fill:#F26937;}
	.st2{font-family:'FSJoey-Bold';}
	.st3{font-size:36px;}
	.st4{letter-spacing:1;}
	.st5{fill:#414042;}
	.st6{font-size:26px;}
	.st7{letter-spacing:-1;}
	.st8{font-size:22px;}
	.st9{font-family:'FSJoey';}
	.st10{clip-path:url(#SVGID_00000097492359437621153970000003105840443938724768_);fill:#F26937;}
	.st11{clip-path:url(#SVGID_00000094589431688431268180000000723189937034156695_);fill:#F26937;}
	.st12{fill:#76004B;}
	.st13{clip-path:url(#SVGID_00000002371712002309021990000012203380546527754884_);fill:#76004B;}
</style>
<g>
	<g>
		<path class="st0" d="M123,463.5c-11,0-20,9-20,20v548c0,11,9,20,20,20h592c11,0,20-9,20-20v-548c0-11-9-20-20-20H123z"/>
	</g>
	<text transform="matrix(1 0 0 1 226.3218 508.8557)"><tspan x="0" y="0" class="st1 st2 st3 st4">L</tspan><tspan x="17.1" y="0" class="st1 st2 st3">A</tspan><tspan x="38.1" y="0" class="st1 st2 st3">SH</tspan></text>
	<text transform="matrix(1 0 0 1 226.3218 540.0554)"><tspan x="0" y="0" class="st5 st2 st6">Mo</tspan><tspan x="32.4" y="0" class="st5 st2 st6">n</tspan><tspan x="45.6" y="0" class="st5 st2 st6">da</tspan><tspan x="70.9" y="0" class="st5 st2 st6">y</tspan><tspan x="82.3" y="0" class="st5 st2 st6"> </tspan><tspan x="87.7" y="0" class="st5 st2 st6">–</tspan><tspan x="100.2" y="0" class="st5 st2 st6"> </tspan><tspan x="105.5" y="0" class="st5 st2 st6">F</tspan><tspan x="117.9" y="0" class="st5 st2 st6">rida</tspan><tspan x="157.6" y="0" class="st5 st2 st6 st7">y</tspan><tspan x="168.3" y="0" class="st5 st2 st6">,</tspan><tspan x="173.6" y="0" class="st5 st2 st6"> 8</tspan><tspan x="192.5" y="0" class="st5 st2 st6"> </tspan></text>
	<text transform="matrix(1 0 0 1 423.8403 540.0554)"><tspan x="0" y="0" class="st5 st2 st8">A</tspan><tspan x="12.1" y="0" class="st5 st2 st8">M</tspan></text>
	<text transform="matrix(1 0 0 1 452.7476 540.0554)"><tspan x="0" y="0" class="st5 st2 st6"> – 8</tspan><tspan x="36.8" y="0" class="st5 st2 st6"> </tspan></text>
	<text transform="matrix(1 0 0 1 494.7368 540.0554)"><tspan x="0" y="0" class="st5 st2 st8">P</tspan><tspan x="11.7" y="0" class="st5 st2 st8">M</tspan></text>
	<text transform="matrix(1 0 0 1 523.2261 540.0554)"><tspan x="0" y="0" class="st5 st2 st6"> </tspan><tspan x="5.4" y="0" class="st5 st2 st6">E</tspan><tspan x="18.6" y="0" class="st5 st2 st6">T</tspan></text>
	<text transform="matrix(1 0 0 1 226.3325 571.2556)"><tspan x="0" y="0" class="st5 st9 st6">W</tspan><tspan x="20.2" y="0" class="st5 st9 st6">h</tspan><tspan x="32.8" y="0" class="st5 st9 st6">en a </tspan><tspan x="79.6" y="0" class="st5 st9 st6">c</tspan><tspan x="89.9" y="0" class="st5 st9 st6">a</tspan><tspan x="101.5" y="0" class="st5 st9 st6">l</tspan><tspan x="107.5" y="0" class="st5 st9 st6">ler c</tspan><tspan x="148.1" y="0" class="st5 st9 st6">h</tspan><tspan x="160.7" y="0" class="st5 st9 st6">ooses </tspan><tspan x="221.2" y="0" class="st5 st9 st6">t</tspan><tspan x="228.9" y="0" class="st5 st9 st6">h</tspan><tspan x="241.5" y="0" class="st5 st9 st6">e</tspan><tspan x="252.8" y="0" class="st5 st9 st6"> o</tspan><tspan x="270.2" y="0" class="st5 st9 st6">p</tspan><tspan x="282.7" y="0" class="st5 st9 st6">tion f</tspan><tspan x="333.1" y="0" class="st5 st9 st6">r</tspan><tspan x="340.4" y="0" class="st5 st9 st6">om </tspan><tspan x="378.2" y="0" class="st5 st9 st6">t</tspan><tspan x="385.9" y="0" class="st5 st9 st6">h</tspan><tspan x="398.5" y="0" class="st5 st9 st6">e</tspan><tspan x="409.8" y="0" class="st5 st9 st6"> IV</tspan><tspan x="433.9" y="0" class="st5 st9 st6">R </tspan></text>
	<text transform="matrix(1 0 0 1 226.3325 602.4553)"><tspan x="0" y="0" class="st5 st9 st6">to sp</tspan><tspan x="47.6" y="0" class="st5 st9 st6">e</tspan><tspan x="58.9" y="0" class="st5 st9 st6">ak wit</tspan><tspan x="116.5" y="0" class="st5 st9 st6">h</tspan><tspan x="129.1" y="0" class="st5 st9 st6"> a live r</tspan><tspan x="198.6" y="0" class="st5 st9 st6">e</tspan><tspan x="209.9" y="0" class="st5 st9 st6">p</tspan><tspan x="222.3" y="0" class="st5 st9 st6">r</tspan><tspan x="229.7" y="0" class="st5 st9 st6">ese</tspan><tspan x="262.3" y="0" class="st5 st9 st6">nt</tspan><tspan x="282.6" y="0" class="st5 st9 st6">a</tspan><tspan x="294.2" y="0" class="st5 st9 st6">t</tspan><tspan x="301.9" y="0" class="st5 st9 st6">iv</tspan><tspan x="318.2" y="0" class="st5 st9 st6">e,</tspan><tspan x="334.1" y="0" class="st5 st9 st6"> t</tspan><tspan x="347.4" y="0" class="st5 st9 st6">h</tspan><tspan x="360" y="0" class="st5 st9 st6">e</tspan><tspan x="371.3" y="0" class="st5 st9 st6">y</tspan><tspan x="381.9" y="0" class="st5 st9 st6"> will b</tspan><tspan x="440" y="0" class="st5 st9 st6">e </tspan></text>
	<text transform="matrix(1 0 0 1 226.3325 633.6555)"><tspan x="0" y="0" class="st5 st9 st6">conne</tspan><tspan x="58.7" y="0" class="st5 st9 st6">c</tspan><tspan x="69.2" y="0" class="st5 st9 st6">ted to t</tspan><tspan x="139.1" y="0" class="st5 st9 st6">h</tspan><tspan x="151.7" y="0" class="st5 st9 st6">e main </tspan><tspan x="224.4" y="0" class="st5 st9 st6">c</tspan><tspan x="234.7" y="0" class="st5 st9 st6">a</tspan><tspan x="246.3" y="0" class="st5 st9 st6">ll</tspan><tspan x="258.4" y="0" class="st5 st9 st6"> c</tspan><tspan x="274.2" y="0" class="st5 st9 st6">e</tspan><tspan x="285.5" y="0" class="st5 st9 st6">nt</tspan><tspan x="305.9" y="0" class="st5 st9 st6">e</tspan><tspan x="317.1" y="0" class="st5 st9 st6">r </tspan><tspan x="330.1" y="0" class="st5 st9 st6">t</tspan><tspan x="337.8" y="0" class="st5 st9 st6">ha</tspan><tspan x="362" y="0" class="st5 st9 st6">t</tspan><tspan x="369.7" y="0" class="st5 st9 st6"> </tspan><tspan x="375.3" y="0" class="st5 st9 st6">h</tspan><tspan x="387.9" y="0" class="st5 st9 st6">a</tspan><tspan x="399.5" y="0" class="st5 st9 st6">n</tspan><tspan x="412.1" y="0" class="st5 st9 st6">dl</tspan><tspan x="430.6" y="0" class="st5 st9 st6">e</tspan><tspan x="441.9" y="0" class="st5 st9 st6">s </tspan></text>
	<text transform="matrix(1 0 0 1 226.3325 664.8557)"><tspan x="0" y="0" class="st5 st9 st6">c</tspan><tspan x="10.3" y="0" class="st5 st9 st6">a</tspan><tspan x="21.9" y="0" class="st5 st9 st6">r</tspan><tspan x="29.3" y="0" class="st5 st9 st6">d a</tspan><tspan x="58.9" y="0" class="st5 st9 st6">c</tspan><tspan x="69.3" y="0" class="st5 st9 st6">ti</tspan><tspan x="82.5" y="0" class="st5 st9 st6">v</tspan><tspan x="93.2" y="0" class="st5 st9 st6">atio</tspan><tspan x="129.8" y="0" class="st5 st9 st6">n</tspan><tspan x="142.5" y="0" class="st5 st9 st6">s and </tspan><tspan x="200.3" y="0" class="st5 st9 st6">q</tspan><tspan x="212.7" y="0" class="st5 st9 st6">uestions</tspan><tspan x="293.8" y="0" class="st5 st9 st6">,</tspan><tspan x="298.4" y="0" class="st5 st9 st6"> </tspan><tspan x="304.1" y="0" class="st5 st9 st6">F</tspan><tspan x="315.5" y="0" class="st5 st9 st6 st7">T</tspan><tspan x="326.6" y="0" class="st5 st9 st6">O assis</tspan><tspan x="393.7" y="0" class="st5 st9 st6">t</tspan><tspan x="401.4" y="0" class="st5 st9 st6">a</tspan><tspan x="413" y="0" class="st5 st9 st6">n</tspan><tspan x="425.6" y="0" class="st5 st9 st6">ce</tspan><tspan x="447.1" y="0" class="st5 st9 st6">, </tspan></text>
	<text transform="matrix(1 0 0 1 226.3325 696.0554)"><tspan x="0" y="0" class="st5 st9 st6">bene</tspan><tspan x="47.7" y="0" class="st5 st9 st6">ﬁ</tspan><tspan x="60" y="0" class="st5 st9 st6">ts re</tspan><tspan x="102" y="0" class="st5 st9 st6">v</tspan><tspan x="112.8" y="0" class="st5 st9 st6">i</tspan><tspan x="118.3" y="0" class="st5 st9 st6">e</tspan><tspan x="129.6" y="0" class="st5 st9 st6">ws</tspan><tspan x="156.4" y="0" class="st5 st9 st6">,</tspan><tspan x="161" y="0" class="st5 st9 st6"> a</tspan><tspan x="178.2" y="0" class="st5 st9 st6">n</tspan><tspan x="190.8" y="0" class="st5 st9 st6">d </tspan><tspan x="208.8" y="0" class="st5 st9 st6">g</tspan><tspan x="220.6" y="0" class="st5 st9 st6">e</tspan><tspan x="231.9" y="0" class="st5 st9 st6">n</tspan><tspan x="244.6" y="0" class="st5 st9 st6">e</tspan><tspan x="255.9" y="0" class="st5 st9 st6">r</tspan><tspan x="263.2" y="0" class="st5 st9 st6">al su</tspan><tspan x="308.6" y="0" class="st5 st9 st6">pp</tspan><tspan x="333.5" y="0" class="st5 st9 st6">o</tspan><tspan x="345.4" y="0" class="st5 st9 st6">r</tspan><tspan x="353.1" y="0" class="st5 st9 st6">t</tspan><tspan x="360.8" y="0" class="st5 st9 st6"> qu</tspan><tspan x="391.1" y="0" class="st5 st9 st6">e</tspan><tspan x="402.4" y="0" class="st5 st9 st6">stio</tspan><tspan x="437.4" y="0" class="st5 st9 st6">n</tspan><tspan x="450" y="0" class="st5 st9 st6">s</tspan><tspan x="460" y="0" class="st5 st9 st6">. </tspan></text>
	<text transform="matrix(1 0 0 1 226.3325 750.3694)"><tspan x="0" y="0" class="st5 st2 st6">O</tspan><tspan x="15.6" y="0" class="st5 st2 st6">R</tspan></text>
	<text transform="matrix(1 0 0 1 226.3218 804.7366)"><tspan x="0" y="0" class="st1 st2 st3">C</tspan><tspan x="18.5" y="0" class="st1 st2 st3">onduent</tspan></text>
	<text transform="matrix(1 0 0 1 226.3218 835.9368)"><tspan x="0" y="0" class="st5 st9 st6">W</tspan><tspan x="20.2" y="0" class="st5 st9 st6">h</tspan><tspan x="32.8" y="0" class="st5 st9 st6">en </tspan><tspan x="62.4" y="0" class="st5 st9 st6">c</tspan><tspan x="72.7" y="0" class="st5 st9 st6">alle</tspan><tspan x="107.7" y="0" class="st5 st9 st6">r</tspan><tspan x="115.1" y="0" class="st5 st9 st6">s wis</tspan><tspan x="162.9" y="0" class="st5 st9 st6">h</tspan><tspan x="175.4" y="0" class="st5 st9 st6"> to sp</tspan><tspan x="228.7" y="0" class="st5 st9 st6">e</tspan><tspan x="239.9" y="0" class="st5 st9 st6">ak wit</tspan><tspan x="297.6" y="0" class="st5 st9 st6">h</tspan><tspan x="310.1" y="0" class="st5 st9 st6"> a liv</tspan><tspan x="355.3" y="0" class="st5 st9 st6">e </tspan></text>
	<text transform="matrix(1 0 0 1 226.3218 867.137)"><tspan x="0" y="0" class="st5 st9 st6">re</tspan><tspan x="18.7" y="0" class="st5 st9 st6">p</tspan><tspan x="31.1" y="0" class="st5 st9 st6">rese</tspan><tspan x="71.1" y="0" class="st5 st9 st6">n</tspan><tspan x="83.7" y="0" class="st5 st9 st6">tative a</tspan><tspan x="155.6" y="0" class="st5 st9 st6">f</tspan><tspan x="162.8" y="0" class="st5 st9 st6">t</tspan><tspan x="170.5" y="0" class="st5 st9 st6">er </tspan><tspan x="194.8" y="0" class="st5 st9 st6">L</tspan><tspan x="204.8" y="0" class="st5 st9 st6">AS</tspan><tspan x="229.6" y="0" class="st5 st9 st6">H hours or o</tspan><tspan x="346.4" y="0" class="st5 st9 st6">n</tspan><tspan x="359.1" y="0" class="st5 st9 st6"> w</tspan><tspan x="381.5" y="0" class="st5 st9 st6">ee</tspan><tspan x="404.1" y="0" class="st5 st9 st6">k</tspan><tspan x="414.3" y="0" class="st5 st9 st6">en</tspan><tspan x="438.2" y="0" class="st5 st9 st6">ds</tspan><tspan x="460.6" y="0" class="st5 st9 st6">, </tspan></text>
	<text transform="matrix(1 0 0 1 226.3218 898.3362)"><tspan x="0" y="0" class="st5 st9 st6">t</tspan><tspan x="7.7" y="0" class="st5 st9 st6">h</tspan><tspan x="20.3" y="0" class="st5 st9 st6">ey will b</tspan><tspan x="100.3" y="0" class="st5 st9 st6">e</tspan><tspan x="111.6" y="0" class="st5 st9 st6"> </tspan><tspan x="117.2" y="0" class="st5 st9 st6">r</tspan><tspan x="124.5" y="0" class="st5 st9 st6">outed to a</tspan><tspan x="222.4" y="0" class="st5 st9 st6">f</tspan><tspan x="229.7" y="0" class="st5 st9 st6">t</tspan><tspan x="237.4" y="0" class="st5 st9 st6">e</tspan><tspan x="248.7" y="0" class="st5 st9 st6">r </tspan><tspan x="261.7" y="0" class="st5 st9 st6">h</tspan><tspan x="274.3" y="0" class="st5 st9 st6">ou</tspan><tspan x="298.4" y="0" class="st5 st9 st6">r</tspan><tspan x="305.7" y="0" class="st5 st9 st6">s</tspan><tspan x="315.7" y="0" class="st5 st9 st6">/</tspan><tspan x="323.9" y="0" class="st5 st9 st6">we</tspan><tspan x="352" y="0" class="st5 st9 st6">e</tspan><tspan x="363.3" y="0" class="st5 st9 st6">k</tspan><tspan x="373.5" y="0" class="st5 st9 st6">e</tspan><tspan x="384.8" y="0" class="st5 st9 st6">n</tspan><tspan x="397.5" y="0" class="st5 st9 st6">d </tspan></text>
	<text transform="matrix(1 0 0 1 226.3218 929.5364)"><tspan x="0" y="0" class="st5 st9 st6">re</tspan><tspan x="18.7" y="0" class="st5 st9 st6">p</tspan><tspan x="31.1" y="0" class="st5 st9 st6">rese</tspan><tspan x="71.1" y="0" class="st5 st9 st6">n</tspan><tspan x="83.7" y="0" class="st5 st9 st6">tatives w</tspan><tspan x="170.8" y="0" class="st5 st9 st6">h</tspan><tspan x="183.3" y="0" class="st5 st9 st6">o </tspan><tspan x="200.8" y="0" class="st5 st9 st6">c</tspan><tspan x="211.2" y="0" class="st5 st9 st6">an assist wi</tspan><tspan x="323.5" y="0" class="st5 st9 st6">t</tspan><tspan x="331.2" y="0" class="st5 st9 st6">h </tspan><tspan x="349.4" y="0" class="st5 st9 st6">c</tspan><tspan x="359.8" y="0" class="st5 st9 st6">ar</tspan><tspan x="378.7" y="0" class="st5 st9 st6">d </tspan></text>
	<text transform="matrix(1 0 0 1 226.3218 960.7366)"><tspan x="0" y="0" class="st5 st9 st6">a</tspan><tspan x="11.6" y="0" class="st5 st9 st6">c</tspan><tspan x="22" y="0" class="st5 st9 st6">ti</tspan><tspan x="35.2" y="0" class="st5 st9 st6">v</tspan><tspan x="45.9" y="0" class="st5 st9 st6">ations and </tspan><tspan x="153" y="0" class="st5 st9 st6">g</tspan><tspan x="164.8" y="0" class="st5 st9 st6">en</tspan><tspan x="188.8" y="0" class="st5 st9 st6">e</tspan><tspan x="200.1" y="0" class="st5 st9 st6">r</tspan><tspan x="207.4" y="0" class="st5 st9 st6">al su</tspan><tspan x="252.8" y="0" class="st5 st9 st6">pp</tspan><tspan x="277.7" y="0" class="st5 st9 st6">o</tspan><tspan x="289.6" y="0" class="st5 st9 st6">r</tspan><tspan x="297.3" y="0" class="st5 st9 st6">t</tspan><tspan x="305" y="0" class="st5 st9 st6"> on</tspan><tspan x="335.2" y="0" class="st5 st9 st6">l</tspan><tspan x="341.2" y="0" class="st5 st9 st6 st7">y</tspan><tspan x="350.9" y="0" class="st5 st9 st6">. I</tspan><tspan x="366.3" y="0" class="st5 st9 st6">f</tspan><tspan x="373.3" y="0" class="st5 st9 st6"> </tspan><tspan x="378.9" y="0" class="st5 st9 st6">C</tspan><tspan x="391.3" y="0" class="st5 st9 st6">ondu</tspan><tspan x="440.4" y="0" class="st5 st9 st6">e</tspan><tspan x="451.7" y="0" class="st5 st9 st6">n</tspan><tspan x="464.4" y="0" class="st5 st9 st6">t </tspan></text>
	<text transform="matrix(1 0 0 1 226.3218 991.9368)"><tspan x="0" y="0" class="st5 st9 st6">is no</tspan><tspan x="45.5" y="0" class="st5 st9 st6">t</tspan><tspan x="53.2" y="0" class="st5 st9 st6"> able to assist</tspan><tspan x="185.5" y="0" class="st5 st9 st6">,</tspan><tspan x="190.2" y="0" class="st5 st9 st6"> </tspan><tspan x="195.8" y="0" class="st5 st9 st6">c</tspan><tspan x="206.1" y="0" class="st5 st9 st6">a</tspan><tspan x="217.7" y="0" class="st5 st9 st6">l</tspan><tspan x="223.7" y="0" class="st5 st9 st6">le</tspan><tspan x="241.1" y="0" class="st5 st9 st6">r</tspan><tspan x="248.4" y="0" class="st5 st9 st6">s wi</tspan><tspan x="286.3" y="0" class="st5 st9 st6">l</tspan><tspan x="292.3" y="0" class="st5 st9 st6">l b</tspan><tspan x="316.4" y="0" class="st5 st9 st6">e</tspan><tspan x="327.7" y="0" class="st5 st9 st6"> ins</tspan><tspan x="361.3" y="0" class="st5 st9 st6">tr</tspan><tspan x="376.4" y="0" class="st5 st9 st6">u</tspan><tspan x="388.6" y="0" class="st5 st9 st6">c</tspan><tspan x="399.1" y="0" class="st5 st9 st6">te</tspan><tspan x="418.1" y="0" class="st5 st9 st6">d </tspan><tspan x="436.1" y="0" class="st5 st9 st6">t</tspan><tspan x="443.8" y="0" class="st5 st9 st6">o </tspan></text>
	<text transform="matrix(1 0 0 1 226.3218 1023.137)"><tspan x="0" y="0" class="st5 st9 st6">c</tspan><tspan x="10.3" y="0" class="st5 st9 st6">a</tspan><tspan x="21.9" y="0" class="st5 st9 st6">l</tspan><tspan x="27.9" y="0" class="st5 st9 st6">l back t</tspan><tspan x="97.5" y="0" class="st5 st9 st6">h</tspan><tspan x="110.1" y="0" class="st5 st9 st6">e ne</tspan><tspan x="151" y="0" class="st5 st9 st6">x</tspan><tspan x="161.8" y="0" class="st5 st9 st6">t busi</tspan><tspan x="215.1" y="0" class="st5 st9 st6">n</tspan><tspan x="227.8" y="0" class="st5 st9 st6">ess da</tspan><tspan x="288.5" y="0" class="st5 st9 st6">y</tspan><tspan x="299.1" y="0" class="st5 st9 st6"> du</tspan><tspan x="329.4" y="0" class="st5 st9 st6">r</tspan><tspan x="336.7" y="0" class="st5 st9 st6">i</tspan><tspan x="342.2" y="0" class="st5 st9 st6">n</tspan><tspan x="354.8" y="0" class="st5 st9 st6">g </tspan><tspan x="372.3" y="0" class="st5 st9 st6">L</tspan><tspan x="382.2" y="0" class="st5 st9 st6">A</tspan><tspan x="395.5" y="0" class="st5 st9 st6">S</tspan><tspan x="407" y="0" class="st5 st9 st6">H hou</tspan><tspan x="464.2" y="0" class="st5 st9 st6">r</tspan><tspan x="471.6" y="0" class="st5 st9 st6">s</tspan><tspan x="481.5" y="0" class="st5 st9 st6">.</tspan></text>
	<g>
		<g>
			<defs>
				<rect id="SVGID_1_" x="105.6" y="470" width="124.5" height="112.5"/>
			</defs>
			<clipPath id="SVGID_00000182517389144974675400000003980370789418237621_">
				<use xlink:href="#SVGID_1_"  style="overflow:visible;"/>
			</clipPath>
			<path style="clip-path:url(#SVGID_00000182517389144974675400000003980370789418237621_);fill:#F26937;" d="M212.5,570.9
				c-8.3-8.6-18.5-14.6-29.5-17.5c-0.3-0.2-0.6-0.2-0.9-0.2h-1c0,0-0.1,0-0.1,0l4.5,10.3l-9.4,18.1h35c1,0,1.9-0.9,1.9-2v-7.2
				C213.1,571.8,212.9,571.3,212.5,570.9"/>
			<path style="clip-path:url(#SVGID_00000182517389144974675400000003980370789418237621_);fill:#F26937;" d="M154.6,553.2
				c0,0-0.1,0-0.1,0h-0.7c-0.1,0-0.3,0-0.4,0.1c-11.2,2.8-21.7,8.9-30.2,17.7c-0.4,0.4-0.6,0.9-0.6,1.4v7.2c0,1.1,0.9,2,1.9,2h34.8
				l-9.2-17.8L154.6,553.2z"/>
			<path style="clip-path:url(#SVGID_00000182517389144974675400000003980370789418237621_);fill:#F26937;" d="M167.2,536.2
				c-1.1,0-2,0.6-2.5,1.6c-11.2-1.2-14.8-11.5-14.8-11.5c0,0.2,0,0.2,0,0h-0.1c-1.9,0-3.5-1.8-3.5-3.9c0-1.6,0.9-3,2.1-3.6
				c0,0,5.3-11.1,7.9-24.1c0,0,2.5,20.4,30.8,23.9c0,0,0,0.1,0,0.1c1.2,0.6,2.1,2,2.1,3.6c0,2.2-1.6,3.9-3.5,3.9h-0.1
				c-0.4,5.8-3,11.6-6.9,15.6v5c13.6-0.7,22.9-7.2,22.9-7.2c-12.8-8.3-1.8-36.2-16-49.3c-14.2-13.1-17.9-4.6-17.9-4.6
				s-3.7-8.5-17.9,4.6c-14.2,13.1-3.1,41-16,49.3c0,0,9.2,6.5,22.8,7.2v-5.1c-2.1-2.2-3.8-5-5-7.9c2.5,2.9,6.6,5.9,12.9,6.6
				c0.4,1.1,1.4,1.8,2.6,1.8c1.6,0,2.8-1.3,2.8-3C170,537.5,168.8,536.2,167.2,536.2"/>
		</g>
		<g>
			<defs>
				<rect id="SVGID_00000000916906353253927450000018047844272938656654_" x="105.6" y="764.7" width="124.5" height="112.5"/>
			</defs>
			<clipPath id="SVGID_00000082333090869313497860000006037729880282774206_">
				<use xlink:href="#SVGID_00000000916906353253927450000018047844272938656654_"  style="overflow:visible;"/>
			</clipPath>
			<path style="clip-path:url(#SVGID_00000082333090869313497860000006037729880282774206_);fill:#F26937;" d="M212.5,865.6
				c-8.3-8.6-18.5-14.6-29.5-17.5c-0.3-0.2-0.6-0.2-0.9-0.2h-1c0,0-0.1,0-0.1,0l4.5,10.3l-9.4,18.1h35c1,0,1.9-0.9,1.9-2v-7.2
				C213.1,866.5,212.9,866,212.5,865.6"/>
			<path style="clip-path:url(#SVGID_00000082333090869313497860000006037729880282774206_);fill:#F26937;" d="M154.6,847.9
				c0,0-0.1,0-0.1,0h-0.7c-0.1,0-0.3,0-0.4,0.1c-11.2,2.8-21.7,8.9-30.2,17.7c-0.4,0.4-0.6,0.9-0.6,1.4v7.2c0,1.1,0.9,2,1.9,2h34.8
				l-9.2-17.8L154.6,847.9z"/>
			<path style="clip-path:url(#SVGID_00000082333090869313497860000006037729880282774206_);fill:#F26937;" d="M167.2,830.9
				c-1.1,0-2,0.6-2.5,1.6C153.6,831.3,150,821,150,821c0,0.2,0,0.2,0,0h-0.1c-1.9,0-3.5-1.8-3.5-3.9c0-1.6,0.9-3,2.1-3.6
				c0,0,5.3-11.1,7.9-24.1c0,0,2.5,20.4,30.8,23.9c0,0,0,0.1,0,0.1c1.2,0.6,2.1,2,2.1,3.6c0,2.2-1.6,3.9-3.5,3.9h-0.1
				c-0.4,5.8-3,11.6-6.9,15.6v5c13.6-0.7,22.9-7.2,22.9-7.2c-12.8-8.3-1.8-36.2-16-49.3c-14.2-13.1-17.9-4.6-17.9-4.6
				s-3.7-8.5-17.9,4.6c-14.2,13.1-3.1,41-16,49.3c0,0,9.2,6.5,22.8,7.2v-5.1c-2.1-2.2-3.8-5-5-7.9c2.5,2.9,6.6,5.9,12.9,6.6
				c0.4,1.1,1.4,1.8,2.6,1.8c1.6,0,2.8-1.3,2.8-3C170,832.3,168.8,830.9,167.2,830.9"/>
		</g>
		<path class="st1" d="M435.8,1082.2l0,50.3l21.9,0l-39.9,36.7l-39.7-36.7h23.4v-7.8l0-42l-8.5,0l0,42h-20.4c-2.5,0-4.5,1.1-5.4,3.1
			c-0.4,0.8-0.5,1.7-0.5,2.6c0,1.7,0.6,3.3,1.7,4.3l43.8,40.5c3.1,2.8,8,2.8,11.1,0l44-40.5c1-0.9,1.5-2.4,1.5-4c0-1-0.2-2-0.6-3
			c-0.5-1.1-1.8-3.1-4.4-3.1l-19.5,0l0-42.7L435.8,1082.2z"/>
	</g>
</g>
<text transform="matrix(1 0 0 1 327.5 68.0276)" class="st12 st2 st3">IVR</text>
<text transform="matrix(1 0 0 1 327.5 99.2273)"><tspan x="0" y="0" class="st5 st2 st6">2</tspan><tspan x="13.5" y="0" class="st5 st2 st6">4</tspan><tspan x="27.1" y="0" class="st5 st2 st6">/</tspan><tspan x="36.8" y="0" class="st5 st2 st6">7</tspan></text>
<text transform="matrix(1 0 0 1 327.5 130.4275)"><tspan x="0" y="0" class="st5 st9 st6">W</tspan><tspan x="20.2" y="0" class="st5 st9 st6">h</tspan><tspan x="32.8" y="0" class="st5 st9 st6">e</tspan><tspan x="44.1" y="0" class="st5 st9 st6">n</tspan><tspan x="56.7" y="0" class="st5 st9 st6"> </tspan><tspan x="62.3" y="0" class="st5 st9 st6">c</tspan><tspan x="72.7" y="0" class="st5 st9 st6">al</tspan><tspan x="90.3" y="0" class="st5 st9 st6">ler</tspan><tspan x="115" y="0" class="st5 st9 st6">s con</tspan><tspan x="165.3" y="0" class="st5 st9 st6">t</tspan><tspan x="173" y="0" class="st5 st9 st6">a</tspan><tspan x="184.5" y="0" class="st5 st9 st6">c</tspan><tspan x="195" y="0" class="st5 st9 st6">t </tspan></text>
<text transform="matrix(1 0 0 1 327.5 161.6277)"><tspan x="0" y="0" class="st5 st2 st6">1</tspan><tspan x="13.5" y="0" class="st5 st2 st6">-</tspan><tspan x="21.7" y="0" class="st5 st2 st6">8</tspan><tspan x="35.2" y="0" class="st5 st2 st6">55</tspan><tspan x="62.3" y="0" class="st5 st2 st6">-ELI</tspan><tspan x="100.3" y="0" class="st5 st2 st6">Q</tspan><tspan x="115.8" y="0" class="st5 st2 st6">UI</tspan><tspan x="137.8" y="0" class="st5 st2 st6">S</tspan></text>
<text transform="matrix(1 0 0 1 477.8315 161.6277)"><tspan x="0" y="0" class="st5 st9 st6">, th</tspan><tspan x="30.6" y="0" class="st5 st9 st6">e</tspan><tspan x="41.9" y="0" class="st5 st9 st6">y wi</tspan><tspan x="80.4" y="0" class="st5 st9 st6">l</tspan><tspan x="86.5" y="0" class="st5 st9 st6">l initiall</tspan><tspan x="158.6" y="0" class="st5 st9 st6">y </tspan></text>
<text transform="matrix(1 0 0 1 327.5 192.8274)"><tspan x="0" y="0" class="st5 st9 st6">b</tspan><tspan x="12.4" y="0" class="st5 st9 st6">e</tspan><tspan x="23.7" y="0" class="st5 st9 st6"> co</tspan><tspan x="51.4" y="0" class="st5 st9 st6">nn</tspan><tspan x="76.6" y="0" class="st5 st9 st6">e</tspan><tspan x="88" y="0" class="st5 st9 st6">c</tspan><tspan x="98.4" y="0" class="st5 st9 st6">t</tspan><tspan x="106.2" y="0" class="st5 st9 st6">e</tspan><tspan x="117.4" y="0" class="st5 st9 st6">d </tspan><tspan x="135.5" y="0" class="st5 st9 st6">t</tspan><tspan x="143.2" y="0" class="st5 st9 st6">o </tspan><tspan x="160.6" y="0" class="st5 st9 st6">t</tspan><tspan x="168.3" y="0" class="st5 st9 st6">he a</tspan><tspan x="209.4" y="0" class="st5 st9 st6">u</tspan><tspan x="221.6" y="0" class="st5 st9 st6">tomat</tspan><tspan x="280.9" y="0" class="st5 st9 st6">e</tspan><tspan x="292.2" y="0" class="st5 st9 st6">d </tspan></text>
<text transform="matrix(1 0 0 1 327.5 224.0276)"><tspan x="0" y="0" class="st5 st9 st6">r</tspan><tspan x="7.4" y="0" class="st5 st9 st6">e</tspan><tspan x="18.7" y="0" class="st5 st9 st6">s</tspan><tspan x="28.6" y="0" class="st5 st9 st6">p</tspan><tspan x="41.1" y="0" class="st5 st9 st6">o</tspan><tspan x="52.9" y="0" class="st5 st9 st6">n</tspan><tspan x="65.5" y="0" class="st5 st9 st6">se s</tspan><tspan x="102.3" y="0" class="st5 st9 st6">y</tspan><tspan x="112.9" y="0" class="st5 st9 st6">stem. </tspan><tspan x="172.4" y="0" class="st5 st9 st6">C</tspan><tspan x="185" y="0" class="st5 st9 st6">a</tspan><tspan x="196.6" y="0" class="st5 st9 st6">l</tspan><tspan x="202.6" y="0" class="st5 st9 st6">l</tspan><tspan x="208.7" y="0" class="st5 st9 st6">e</tspan><tspan x="220" y="0" class="st5 st9 st6">rs </tspan><tspan x="242.9" y="0" class="st5 st9 st6">c</tspan><tspan x="253.2" y="0" class="st5 st9 st6">a</tspan><tspan x="264.8" y="0" class="st5 st9 st6">n </tspan></text>
<text transform="matrix(1 0 0 1 327.5 255.2273)"><tspan x="0" y="0" class="st5 st9 st6">c</tspan><tspan x="10.2" y="0" class="st5 st9 st6">h</tspan><tspan x="22.8" y="0" class="st5 st9 st6">oos</tspan><tspan x="56.4" y="0" class="st5 st9 st6">e</tspan><tspan x="67.7" y="0" class="st5 st9 st6"> to a</tspan><tspan x="110.1" y="0" class="st5 st9 st6">c</tspan><tspan x="120.6" y="0" class="st5 st9 st6">t</tspan><tspan x="128.3" y="0" class="st5 st9 st6">i</tspan><tspan x="133.7" y="0" class="st5 st9 st6">v</tspan><tspan x="144.5" y="0" class="st5 st9 st6">ate </tspan><tspan x="180.7" y="0" class="st5 st9 st6">c</tspan><tspan x="191" y="0" class="st5 st9 st6">a</tspan><tspan x="202.6" y="0" class="st5 st9 st6">r</tspan><tspan x="210" y="0" class="st5 st9 st6">ds </tspan><tspan x="237.9" y="0" class="st5 st9 st6">t</tspan><tspan x="245.6" y="0" class="st5 st9 st6">h</tspan><tspan x="258.2" y="0" class="st5 st9 st6">r</tspan><tspan x="265.5" y="0" class="st5 st9 st6">o</tspan><tspan x="277.4" y="0" class="st5 st9 st6">ug</tspan><tspan x="301.4" y="0" class="st5 st9 st6">h </tspan></text>
<text transform="matrix(1 0 0 1 327.5 286.4275)"><tspan x="0" y="0" class="st5 st9 st6">t</tspan><tspan x="7.7" y="0" class="st5 st9 st6">he</tspan><tspan x="31.6" y="0" class="st5 st9 st6"> s</tspan><tspan x="47.1" y="0" class="st5 st9 st6">y</tspan><tspan x="57.7" y="0" class="st5 st9 st6">st</tspan><tspan x="75.4" y="0" class="st5 st9 st6">e</tspan><tspan x="86.7" y="0" class="st5 st9 st6">m, or </tspan><tspan x="142.2" y="0" class="st5 st9 st6">t</tspan><tspan x="149.9" y="0" class="st5 st9 st6">he</tspan><tspan x="173.8" y="0" class="st5 st9 st6">y</tspan><tspan x="184.4" y="0" class="st5 st9 st6"> </tspan><tspan x="190.1" y="0" class="st5 st9 st6">c</tspan><tspan x="200.4" y="0" class="st5 st9 st6">a</tspan><tspan x="212" y="0" class="st5 st9 st6">n</tspan><tspan x="224.6" y="0" class="st5 st9 st6"> o</tspan><tspan x="242.1" y="0" class="st5 st9 st6">p</tspan><tspan x="254.5" y="0" class="st5 st9 st6">t </tspan><tspan x="267.9" y="0" class="st5 st9 st6">t</tspan><tspan x="275.6" y="0" class="st5 st9 st6">o </tspan></text>
<text transform="matrix(1 0 0 1 327.5 317.6272)"><tspan x="0" y="0" class="st5 st9 st6">s</tspan><tspan x="9.9" y="0" class="st5 st9 st6">pe</tspan><tspan x="33.7" y="0" class="st5 st9 st6">ak </tspan><tspan x="61.3" y="0" class="st5 st9 st6">t</tspan><tspan x="69" y="0" class="st5 st9 st6">o a </tspan><tspan x="103.6" y="0" class="st5 st9 st6">l</tspan><tspan x="109.6" y="0" class="st5 st9 st6">i</tspan><tspan x="115.1" y="0" class="st5 st9 st6">ve</tspan><tspan x="137.2" y="0" class="st5 st9 st6"> r</tspan><tspan x="150.2" y="0" class="st5 st9 st6">e</tspan><tspan x="161.5" y="0" class="st5 st9 st6">p</tspan><tspan x="174" y="0" class="st5 st9 st6">r</tspan><tspan x="181.3" y="0" class="st5 st9 st6">es</tspan><tspan x="202.6" y="0" class="st5 st9 st6">e</tspan><tspan x="213.9" y="0" class="st5 st9 st6">n</tspan><tspan x="226.5" y="0" class="st5 st9 st6">t</tspan><tspan x="234.2" y="0" class="st5 st9 st6">a</tspan><tspan x="245.8" y="0" class="st5 st9 st6">t</tspan><tspan x="253.5" y="0" class="st5 st9 st6">i</tspan><tspan x="259" y="0" class="st5 st9 st6">ve</tspan><tspan x="281.1" y="0" class="st5 st9 st6">. </tspan></text>
<path class="st12" d="M238.4,78.1c1.1-0.7,1.4-2.1,0.7-3.2c-0.7-1.1-2.1-1.4-3.2-0.7c-0.3,0.2-7.2,4.7-7.2,16.1
	c0,11.2,6.7,16.7,7,16.9c0.4,0.3,0.9,0.5,1.4,0.5c0.7,0,1.4-0.3,1.8-0.9c0.8-1,0.6-2.5-0.4-3.2c-0.1,0-5.3-4.3-5.3-13.3
	C233.4,81.6,238.3,78.2,238.4,78.1"/>
<path class="st12" d="M233.4,113.5c-0.1-0.1-10.8-7.7-10.8-23.5c0-15.6,10.2-21.5,10.6-21.8c1.1-0.6,1.5-2,0.9-3.1
	c-0.6-1.1-2-1.5-3.1-0.9c-0.5,0.3-13,7.4-13,25.8c0,18.3,12.2,27,12.8,27.3c0.4,0.3,0.9,0.4,1.3,0.4c0.7,0,1.4-0.3,1.9-1
	C234.7,115.7,234.4,114.2,233.4,113.5"/>
<path class="st12" d="M305.7,91.3c0-11.2-6.7-16.7-7-16.9c-1-0.8-2.5-0.6-3.2,0.4c-0.8,1-0.6,2.5,0.4,3.2c0.1,0,5.3,4.3,5.3,13.3
	c0,8.7-4.9,12.1-5.1,12.2c-1.1,0.7-1.4,2.1-0.7,3.2c0.4,0.7,1.2,1.1,2,1.1c0.4,0,0.8-0.1,1.2-0.4
	C298.8,107.2,305.7,102.7,305.7,91.3"/>
<path class="st12" d="M303.7,64.3c-1.1-0.7-2.5-0.5-3.2,0.6c-0.7,1-0.5,2.5,0.6,3.2c0.1,0.1,10.8,7.7,10.8,23.5
	c0,15.6-10.2,21.5-10.6,21.8c-1.1,0.6-1.5,2-0.9,3.1c0.4,0.8,1.2,1.2,2,1.2c0.4,0,0.8-0.1,1.1-0.3c0.5-0.3,13-7.4,13-25.8
	C316.5,73.3,304.2,64.6,303.7,64.3"/>
<path class="st12" d="M286.5,129.7c0,1.9-1.5,3.4-3.4,3.4h-31.7c-1.9,0-3.4-1.5-3.4-3.4V51.8c0-1.9,1.5-3.4,3.4-3.4l4.9,0
	c0.2,0,0.4,0.2,0.4,0.4c0.2,1.6,1.6,2.9,3.2,2.9h14.7c1.7,0,3-1.3,3.2-2.9c0-0.2,0.2-0.4,0.4-0.4l4.9,0c1.9,0,3.4,1.5,3.4,3.4V129.7
	z M282.7,44.6h-4.7h-21.4h-4.7c-4.2,0-7.6,3.4-7.6,7.6v77c0,4.2,3.4,7.6,7.6,7.6h30.9c4.2,0,7.6-3.4,7.6-7.6v-77
	C290.3,48.1,286.9,44.6,282.7,44.6"/>
<text transform="matrix(1 0 0 1 327.853 1232.0276)"><tspan x="0" y="0" class="st12 st2 st3">Mc</tspan><tspan x="44.3" y="0" class="st12 st2 st3">K</tspan><tspan x="63.7" y="0" class="st12 st2 st3">esson</tspan></text>
<text transform="matrix(1 0 0 1 327.853 1263.2273)"><tspan x="0" y="0" class="st5 st9 st6">Pharmacists </tspan><tspan x="130.9" y="0" class="st5 st9 st6">c</tspan><tspan x="141.7" y="0" class="st5 st9 st6">an get assistance </tspan></text>
<text transform="matrix(1 0 0 1 327.853 1294.4275)"><tspan x="0" y="0" class="st5 st9 st6">with the ELIQUIS 360 Suppo</tspan><tspan x="281.8" y="0" class="st5 st9 st6">r</tspan><tspan x="290.1" y="0" class="st5 st9 st6">t </tspan></text>
<text transform="matrix(1 0 0 1 327.853 1325.6277)"><tspan x="0" y="0" class="st5 st9 st6">p</tspan><tspan x="13" y="0" class="st5 st9 st6">r</tspan><tspan x="20.8" y="0" class="st5 st9 st6">og</tspan><tspan x="45.4" y="0" class="st5 st9 st6">r</tspan><tspan x="53.3" y="0" class="st5 st9 st6">am by </tspan><tspan x="122.5" y="0" class="st5 st9 st6">c</tspan><tspan x="133.3" y="0" class="st5 st9 st6">alling the </tspan></text>
<text transform="matrix(1 0 0 1 327.853 1356.8274)"><tspan x="0" y="0" class="st5 st9 st6">pharma</tspan><tspan x="79" y="0" class="st5 st9 st6">c</tspan><tspan x="90.1" y="0" class="st5 st9 st6">y suppo</tspan><tspan x="168.8" y="0" class="st5 st9 st6">r</tspan><tspan x="177.1" y="0" class="st5 st9 st6">t line dire</tspan><tspan x="273.5" y="0" class="st5 st9 st6">c</tspan><tspan x="284.4" y="0" class="st5 st9 st6">tly </tspan></text>
<text transform="matrix(1 0 0 1 327.853 1388.0276)" class="st5 st9 st6">at </text>
<text transform="matrix(1 0 0 1 354.2427 1388.0276)" class="st5 st2 st6">1-866-279-4730</text>
<text transform="matrix(1 0 0 1 534.6548 1388.0276)"><tspan x="0" y="0" class="st5 st9 st6">. </tspan><tspan x="11.1" y="0" class="st5 st9 st6">T</tspan><tspan x="23" y="0" class="st5 st9 st6">he main </tspan></text>
<text transform="matrix(1 0 0 1 327.853 1419.2273)"><tspan x="0" y="0" class="st5 st9 st6">c</tspan><tspan x="10.8" y="0" class="st5 st9 st6">all center </tspan><tspan x="111.8" y="0" class="st5 st9 st6">c</tspan><tspan x="122.6" y="0" class="st5 st9 st6">an also t</tspan><tspan x="209.7" y="0" class="st5 st9 st6">r</tspan><tspan x="217.5" y="0" class="st5 st9 st6">ansfer </tspan></text>
<text transform="matrix(1 0 0 1 327.853 1450.4275)"><tspan x="0" y="0" class="st5 st9 st6">pharma</tspan><tspan x="79" y="0" class="st5 st9 st6">c</tspan><tspan x="90.1" y="0" class="st5 st9 st6">y </tspan><tspan x="107.4" y="0" class="st5 st9 st6">c</tspan><tspan x="118.2" y="0" class="st5 st9 st6">alls to this suppo</tspan><tspan x="291.8" y="0" class="st5 st9 st6">r</tspan><tspan x="300.1" y="0" class="st5 st9 st6">t </tspan></text>
<text transform="matrix(1 0 0 1 327.853 1481.6272)" class="st5 st9 st6">line when needed. </text>
<g>
	<defs>
		<rect id="SVGID_00000011750931721353142310000007610736666333058212_" x="200.4" y="1192" width="124.5" height="112.5"/>
	</defs>
	<clipPath id="SVGID_00000004510750044908912810000017948632801585775504_">
		<use xlink:href="#SVGID_00000011750931721353142310000007610736666333058212_"  style="overflow:visible;"/>
	</clipPath>
	<path style="clip-path:url(#SVGID_00000004510750044908912810000017948632801585775504_);fill:#76004B;" d="M307.4,1292.9
		c-8.3-8.6-18.5-14.6-29.5-17.5c-0.3-0.2-0.6-0.2-0.9-0.2h-1c0,0-0.1,0-0.1,0l4.5,10.3l-9.4,18.1h35c1,0,1.9-0.9,1.9-2v-7.2
		C307.9,1293.8,307.7,1293.3,307.4,1292.9"/>
	<path style="clip-path:url(#SVGID_00000004510750044908912810000017948632801585775504_);fill:#76004B;" d="M249.4,1275.2
		c0,0-0.1,0-0.1,0h-0.7c-0.1,0-0.3,0-0.4,0.1c-11.2,2.8-21.7,8.9-30.2,17.7c-0.4,0.4-0.6,0.9-0.6,1.4v7.2c0,1.1,0.9,2,1.9,2h34.8
		l-9.2-17.8L249.4,1275.2z"/>
	<path style="clip-path:url(#SVGID_00000004510750044908912810000017948632801585775504_);fill:#76004B;" d="M262.1,1258.2
		c-1.1,0-2,0.6-2.5,1.6c-11.2-1.2-14.8-11.5-14.8-11.5c0,0.2,0,0.2,0,0h-0.1c-1.9,0-3.5-1.8-3.5-3.9c0-1.6,0.9-3,2.1-3.6
		c0,0,5.3-11.1,7.9-24.1c0,0,2.5,20.4,30.8,23.9c0,0,0,0.1,0,0.1c1.2,0.6,2.1,2,2.1,3.6c0,2.2-1.6,3.9-3.5,3.9h-0.1
		c-0.4,5.8-3,11.6-6.9,15.6v5c13.6-0.7,22.9-7.2,22.9-7.2c-12.8-8.3-1.8-36.2-16-49.3c-14.2-13.1-17.9-4.6-17.9-4.6
		s-3.7-8.5-17.9,4.6c-14.2,13.1-3.1,41-16,49.3c0,0,9.2,6.5,22.8,7.2v-5.1c-2.1-2.2-3.8-5-5-7.9c2.5,2.9,6.6,5.9,12.9,6.6
		c0.4,1.1,1.4,1.8,2.6,1.8c1.6,0,2.8-1.3,2.8-3C264.9,1259.6,263.6,1258.2,262.1,1258.2"/>
</g>
<path class="st1" d="M435.8,347.2l0,50.3l21.9,0l-39.9,36.7l-39.7-36.7h23.4v-7.8l0-42l-8.5,0l0,42h-20.4c-2.5,0-4.5,1.1-5.4,3.1
	c-0.4,0.8-0.5,1.7-0.5,2.6c0,1.7,0.6,3.3,1.7,4.3l43.8,40.5c3.1,2.8,8,2.8,11.1,0l44-40.5c1-0.9,1.5-2.4,1.5-4c0-1-0.2-2-0.6-3
	c-0.5-1.1-1.8-3.1-4.4-3.1l-19.5,0l0-42.7L435.8,347.2z"/>
</svg>
