<?xml version="1.0" encoding="utf-8"?>
<!-- Generator: Adobe Illustrator 27.9.0, SVG Export Plug-In . SVG Version: 6.00 Build 0)  -->
<svg version="1.1" id="Layer_1" xmlns="http://www.w3.org/2000/svg" xmlns:xlink="http://www.w3.org/1999/xlink" x="0px" y="0px"
	 viewBox="0 0 1864 660" style="enable-background:new 0 0 1864 660;" xml:space="preserve">
<style type="text/css">
	.st0{fill:#FEF0EB;}
	.st1{fill:#76004B;}
	.st2{font-family:'FSJoey-Bold';}
	.st3{font-size:36px;}
	.st4{fill:#414042;}
	.st5{font-size:26px;}
	.st6{font-family:'FSJoey';}
	.st7{fill:#F26937;}
	.st8{letter-spacing:1;}
	.st9{letter-spacing:-1;}
	.st10{font-size:22px;}
	.st11{clip-path:url(#SVGID_00000096058943366840033930000011920358006939813031_);fill:#F26937;}
	.st12{clip-path:url(#SVGID_00000025407758663676114760000015247050986644480697_);fill:#76004B;}
	.st13{clip-path:url(#SVGID_00000175295331377908026230000015944832774975442827_);fill:#F26937;}
</style>
<g>
	<g>
		<path class="st0" d="M620,27.5c-11,0-20,9-20,20v548c0,11,9,20,20,20h592c11,0,20-9,20-20v-548c0-11-9-20-20-20H620z"/>
	</g>
	<text transform="matrix(1 0 0 1 149.5 170.0276)" class="st1 st2 st3">IVR</text>
	<text transform="matrix(1 0 0 1 149.5 201.2273)"><tspan x="0" y="0" class="st4 st2 st5">2</tspan><tspan x="13.5" y="0" class="st4 st2 st5">4</tspan><tspan x="27.1" y="0" class="st4 st2 st5">/</tspan><tspan x="36.8" y="0" class="st4 st2 st5">7</tspan></text>
	<text transform="matrix(1 0 0 1 149.5 232.4275)"><tspan x="0" y="0" class="st4 st6 st5">W</tspan><tspan x="20.2" y="0" class="st4 st6 st5">h</tspan><tspan x="32.8" y="0" class="st4 st6 st5">e</tspan><tspan x="44.1" y="0" class="st4 st6 st5">n</tspan><tspan x="56.7" y="0" class="st4 st6 st5"> </tspan><tspan x="62.3" y="0" class="st4 st6 st5">c</tspan><tspan x="72.7" y="0" class="st4 st6 st5">al</tspan><tspan x="90.3" y="0" class="st4 st6 st5">ler</tspan><tspan x="115" y="0" class="st4 st6 st5">s con</tspan><tspan x="165.3" y="0" class="st4 st6 st5">t</tspan><tspan x="173" y="0" class="st4 st6 st5">a</tspan><tspan x="184.5" y="0" class="st4 st6 st5">c</tspan><tspan x="195" y="0" class="st4 st6 st5">t </tspan></text>
	<text transform="matrix(1 0 0 1 149.5 263.6277)"><tspan x="0" y="0" class="st4 st2 st5">1</tspan><tspan x="13.5" y="0" class="st4 st2 st5">-</tspan><tspan x="21.7" y="0" class="st4 st2 st5">8</tspan><tspan x="35.2" y="0" class="st4 st2 st5">55</tspan><tspan x="62.3" y="0" class="st4 st2 st5">-ELI</tspan><tspan x="100.3" y="0" class="st4 st2 st5">Q</tspan><tspan x="115.8" y="0" class="st4 st2 st5">UI</tspan><tspan x="137.8" y="0" class="st4 st2 st5">S</tspan></text>
	<text transform="matrix(1 0 0 1 299.8315 263.6277)"><tspan x="0" y="0" class="st4 st6 st5">, th</tspan><tspan x="30.6" y="0" class="st4 st6 st5">e</tspan><tspan x="41.9" y="0" class="st4 st6 st5">y wi</tspan><tspan x="80.4" y="0" class="st4 st6 st5">l</tspan><tspan x="86.5" y="0" class="st4 st6 st5">l initiall</tspan><tspan x="158.6" y="0" class="st4 st6 st5">y </tspan></text>
	<text transform="matrix(1 0 0 1 149.5 294.8274)"><tspan x="0" y="0" class="st4 st6 st5">b</tspan><tspan x="12.4" y="0" class="st4 st6 st5">e</tspan><tspan x="23.7" y="0" class="st4 st6 st5"> co</tspan><tspan x="51.4" y="0" class="st4 st6 st5">nn</tspan><tspan x="76.6" y="0" class="st4 st6 st5">e</tspan><tspan x="88" y="0" class="st4 st6 st5">c</tspan><tspan x="98.4" y="0" class="st4 st6 st5">t</tspan><tspan x="106.2" y="0" class="st4 st6 st5">e</tspan><tspan x="117.4" y="0" class="st4 st6 st5">d </tspan><tspan x="135.5" y="0" class="st4 st6 st5">t</tspan><tspan x="143.2" y="0" class="st4 st6 st5">o </tspan><tspan x="160.6" y="0" class="st4 st6 st5">t</tspan><tspan x="168.3" y="0" class="st4 st6 st5">he a</tspan><tspan x="209.4" y="0" class="st4 st6 st5">u</tspan><tspan x="221.6" y="0" class="st4 st6 st5">tomat</tspan><tspan x="280.9" y="0" class="st4 st6 st5">e</tspan><tspan x="292.2" y="0" class="st4 st6 st5">d </tspan></text>
	<text transform="matrix(1 0 0 1 149.5 326.0276)"><tspan x="0" y="0" class="st4 st6 st5">r</tspan><tspan x="7.4" y="0" class="st4 st6 st5">e</tspan><tspan x="18.7" y="0" class="st4 st6 st5">s</tspan><tspan x="28.6" y="0" class="st4 st6 st5">p</tspan><tspan x="41.1" y="0" class="st4 st6 st5">o</tspan><tspan x="52.9" y="0" class="st4 st6 st5">n</tspan><tspan x="65.5" y="0" class="st4 st6 st5">se s</tspan><tspan x="102.3" y="0" class="st4 st6 st5">y</tspan><tspan x="112.9" y="0" class="st4 st6 st5">stem. </tspan><tspan x="172.4" y="0" class="st4 st6 st5">C</tspan><tspan x="185" y="0" class="st4 st6 st5">a</tspan><tspan x="196.6" y="0" class="st4 st6 st5">l</tspan><tspan x="202.6" y="0" class="st4 st6 st5">l</tspan><tspan x="208.7" y="0" class="st4 st6 st5">e</tspan><tspan x="220" y="0" class="st4 st6 st5">rs </tspan><tspan x="242.9" y="0" class="st4 st6 st5">c</tspan><tspan x="253.2" y="0" class="st4 st6 st5">a</tspan><tspan x="264.8" y="0" class="st4 st6 st5">n </tspan></text>
	<text transform="matrix(1 0 0 1 149.5 357.2273)"><tspan x="0" y="0" class="st4 st6 st5">c</tspan><tspan x="10.2" y="0" class="st4 st6 st5">h</tspan><tspan x="22.8" y="0" class="st4 st6 st5">oos</tspan><tspan x="56.4" y="0" class="st4 st6 st5">e</tspan><tspan x="67.7" y="0" class="st4 st6 st5"> to a</tspan><tspan x="110.1" y="0" class="st4 st6 st5">c</tspan><tspan x="120.6" y="0" class="st4 st6 st5">t</tspan><tspan x="128.3" y="0" class="st4 st6 st5">i</tspan><tspan x="133.7" y="0" class="st4 st6 st5">v</tspan><tspan x="144.5" y="0" class="st4 st6 st5">ate </tspan><tspan x="180.7" y="0" class="st4 st6 st5">c</tspan><tspan x="191" y="0" class="st4 st6 st5">a</tspan><tspan x="202.6" y="0" class="st4 st6 st5">r</tspan><tspan x="210" y="0" class="st4 st6 st5">ds </tspan><tspan x="237.9" y="0" class="st4 st6 st5">t</tspan><tspan x="245.6" y="0" class="st4 st6 st5">h</tspan><tspan x="258.2" y="0" class="st4 st6 st5">r</tspan><tspan x="265.5" y="0" class="st4 st6 st5">o</tspan><tspan x="277.4" y="0" class="st4 st6 st5">ug</tspan><tspan x="301.4" y="0" class="st4 st6 st5">h </tspan></text>
	<text transform="matrix(1 0 0 1 149.5 388.4275)"><tspan x="0" y="0" class="st4 st6 st5">t</tspan><tspan x="7.7" y="0" class="st4 st6 st5">he</tspan><tspan x="31.6" y="0" class="st4 st6 st5"> s</tspan><tspan x="47.1" y="0" class="st4 st6 st5">y</tspan><tspan x="57.7" y="0" class="st4 st6 st5">st</tspan><tspan x="75.4" y="0" class="st4 st6 st5">e</tspan><tspan x="86.7" y="0" class="st4 st6 st5">m, or </tspan><tspan x="142.2" y="0" class="st4 st6 st5">t</tspan><tspan x="149.9" y="0" class="st4 st6 st5">he</tspan><tspan x="173.8" y="0" class="st4 st6 st5">y</tspan><tspan x="184.4" y="0" class="st4 st6 st5"> </tspan><tspan x="190.1" y="0" class="st4 st6 st5">c</tspan><tspan x="200.4" y="0" class="st4 st6 st5">a</tspan><tspan x="212" y="0" class="st4 st6 st5">n</tspan><tspan x="224.6" y="0" class="st4 st6 st5"> o</tspan><tspan x="242.1" y="0" class="st4 st6 st5">p</tspan><tspan x="254.5" y="0" class="st4 st6 st5">t </tspan><tspan x="267.9" y="0" class="st4 st6 st5">t</tspan><tspan x="275.6" y="0" class="st4 st6 st5">o </tspan></text>
	<text transform="matrix(1 0 0 1 149.5 419.6272)"><tspan x="0" y="0" class="st4 st6 st5">s</tspan><tspan x="9.9" y="0" class="st4 st6 st5">pe</tspan><tspan x="33.7" y="0" class="st4 st6 st5">ak </tspan><tspan x="61.3" y="0" class="st4 st6 st5">t</tspan><tspan x="69" y="0" class="st4 st6 st5">o a </tspan><tspan x="103.6" y="0" class="st4 st6 st5">l</tspan><tspan x="109.6" y="0" class="st4 st6 st5">i</tspan><tspan x="115.1" y="0" class="st4 st6 st5">ve</tspan><tspan x="137.2" y="0" class="st4 st6 st5"> r</tspan><tspan x="150.2" y="0" class="st4 st6 st5">e</tspan><tspan x="161.5" y="0" class="st4 st6 st5">p</tspan><tspan x="174" y="0" class="st4 st6 st5">r</tspan><tspan x="181.3" y="0" class="st4 st6 st5">es</tspan><tspan x="202.6" y="0" class="st4 st6 st5">e</tspan><tspan x="213.9" y="0" class="st4 st6 st5">n</tspan><tspan x="226.5" y="0" class="st4 st6 st5">t</tspan><tspan x="234.2" y="0" class="st4 st6 st5">a</tspan><tspan x="245.8" y="0" class="st4 st6 st5">t</tspan><tspan x="253.5" y="0" class="st4 st6 st5">i</tspan><tspan x="259" y="0" class="st4 st6 st5">ve</tspan><tspan x="281.1" y="0" class="st4 st6 st5">. </tspan></text>
	<text transform="matrix(1 0 0 1 1479.853 170.0276)"><tspan x="0" y="0" class="st1 st2 st3">Mc</tspan><tspan x="44.3" y="0" class="st1 st2 st3">K</tspan><tspan x="63.7" y="0" class="st1 st2 st3">esson</tspan></text>
	<text transform="matrix(1 0 0 1 1479.853 201.2273)"><tspan x="0" y="0" class="st4 st6 st5">Pharmacists </tspan><tspan x="130.9" y="0" class="st4 st6 st5">c</tspan><tspan x="141.7" y="0" class="st4 st6 st5">an get assistance </tspan></text>
	<text transform="matrix(1 0 0 1 1479.853 232.4275)"><tspan x="0" y="0" class="st4 st6 st5">with the ELIQUIS 360 Suppo</tspan><tspan x="281.8" y="0" class="st4 st6 st5">r</tspan><tspan x="290.1" y="0" class="st4 st6 st5">t </tspan></text>
	<text transform="matrix(1 0 0 1 1479.853 263.6277)"><tspan x="0" y="0" class="st4 st6 st5">p</tspan><tspan x="13" y="0" class="st4 st6 st5">r</tspan><tspan x="20.8" y="0" class="st4 st6 st5">og</tspan><tspan x="45.4" y="0" class="st4 st6 st5">r</tspan><tspan x="53.3" y="0" class="st4 st6 st5">am by </tspan><tspan x="122.5" y="0" class="st4 st6 st5">c</tspan><tspan x="133.3" y="0" class="st4 st6 st5">alling the </tspan></text>
	<text transform="matrix(1 0 0 1 1479.853 294.8274)"><tspan x="0" y="0" class="st4 st6 st5">pharma</tspan><tspan x="79" y="0" class="st4 st6 st5">c</tspan><tspan x="90.1" y="0" class="st4 st6 st5">y suppo</tspan><tspan x="168.8" y="0" class="st4 st6 st5">r</tspan><tspan x="177.1" y="0" class="st4 st6 st5">t line dire</tspan><tspan x="273.5" y="0" class="st4 st6 st5">c</tspan><tspan x="284.4" y="0" class="st4 st6 st5">tly </tspan></text>
	<text transform="matrix(1 0 0 1 1479.853 326.0276)" class="st4 st6 st5">at </text>
	<text transform="matrix(1 0 0 1 1506.2427 326.0276)" class="st4 st2 st5">1-866-279-4730</text>
	<text transform="matrix(1 0 0 1 1686.6548 326.0276)"><tspan x="0" y="0" class="st4 st6 st5">. </tspan><tspan x="11.1" y="0" class="st4 st6 st5">T</tspan><tspan x="23" y="0" class="st4 st6 st5">he main </tspan></text>
	<text transform="matrix(1 0 0 1 1479.853 357.2273)"><tspan x="0" y="0" class="st4 st6 st5">c</tspan><tspan x="10.8" y="0" class="st4 st6 st5">all center </tspan><tspan x="111.8" y="0" class="st4 st6 st5">c</tspan><tspan x="122.6" y="0" class="st4 st6 st5">an also t</tspan><tspan x="209.7" y="0" class="st4 st6 st5">r</tspan><tspan x="217.5" y="0" class="st4 st6 st5">ansfer </tspan></text>
	<text transform="matrix(1 0 0 1 1479.853 388.4275)"><tspan x="0" y="0" class="st4 st6 st5">pharma</tspan><tspan x="79" y="0" class="st4 st6 st5">c</tspan><tspan x="90.1" y="0" class="st4 st6 st5">y </tspan><tspan x="107.4" y="0" class="st4 st6 st5">c</tspan><tspan x="118.2" y="0" class="st4 st6 st5">alls to this suppo</tspan><tspan x="291.8" y="0" class="st4 st6 st5">r</tspan><tspan x="300.1" y="0" class="st4 st6 st5">t </tspan></text>
	<text transform="matrix(1 0 0 1 1479.853 419.6272)" class="st4 st6 st5">line when needed. </text>
	<text transform="matrix(1 0 0 1 723.3218 72.8557)"><tspan x="0" y="0" class="st7 st2 st3 st8">L</tspan><tspan x="17.1" y="0" class="st7 st2 st3">A</tspan><tspan x="38.1" y="0" class="st7 st2 st3">SH</tspan></text>
	<text transform="matrix(1 0 0 1 723.3218 104.0554)"><tspan x="0" y="0" class="st4 st2 st5">Mo</tspan><tspan x="32.4" y="0" class="st4 st2 st5">n</tspan><tspan x="45.6" y="0" class="st4 st2 st5">da</tspan><tspan x="70.9" y="0" class="st4 st2 st5">y</tspan><tspan x="82.3" y="0" class="st4 st2 st5"> </tspan><tspan x="87.7" y="0" class="st4 st2 st5">–</tspan><tspan x="100.2" y="0" class="st4 st2 st5"> </tspan><tspan x="105.5" y="0" class="st4 st2 st5">F</tspan><tspan x="117.9" y="0" class="st4 st2 st5">rida</tspan><tspan x="157.6" y="0" class="st4 st2 st5 st9">y</tspan><tspan x="168.3" y="0" class="st4 st2 st5">,</tspan><tspan x="173.6" y="0" class="st4 st2 st5"> 8</tspan><tspan x="192.5" y="0" class="st4 st2 st5"> </tspan></text>
	<text transform="matrix(1 0 0 1 920.8403 104.0554)"><tspan x="0" y="0" class="st4 st2 st10">A</tspan><tspan x="12.1" y="0" class="st4 st2 st10">M</tspan></text>
	<text transform="matrix(1 0 0 1 949.7476 104.0554)"><tspan x="0" y="0" class="st4 st2 st5"> – 8</tspan><tspan x="36.8" y="0" class="st4 st2 st5"> </tspan></text>
	<text transform="matrix(1 0 0 1 991.7368 104.0554)"><tspan x="0" y="0" class="st4 st2 st10">P</tspan><tspan x="11.7" y="0" class="st4 st2 st10">M</tspan></text>
	<text transform="matrix(1 0 0 1 1020.2261 104.0554)"><tspan x="0" y="0" class="st4 st2 st5"> </tspan><tspan x="5.4" y="0" class="st4 st2 st5">E</tspan><tspan x="18.6" y="0" class="st4 st2 st5">T</tspan></text>
	<text transform="matrix(1 0 0 1 723.3325 135.2556)"><tspan x="0" y="0" class="st4 st6 st5">W</tspan><tspan x="20.2" y="0" class="st4 st6 st5">h</tspan><tspan x="32.8" y="0" class="st4 st6 st5">en a </tspan><tspan x="79.6" y="0" class="st4 st6 st5">c</tspan><tspan x="89.9" y="0" class="st4 st6 st5">a</tspan><tspan x="101.5" y="0" class="st4 st6 st5">l</tspan><tspan x="107.5" y="0" class="st4 st6 st5">ler c</tspan><tspan x="148.1" y="0" class="st4 st6 st5">h</tspan><tspan x="160.7" y="0" class="st4 st6 st5">ooses </tspan><tspan x="221.2" y="0" class="st4 st6 st5">t</tspan><tspan x="228.9" y="0" class="st4 st6 st5">h</tspan><tspan x="241.5" y="0" class="st4 st6 st5">e</tspan><tspan x="252.8" y="0" class="st4 st6 st5"> o</tspan><tspan x="270.2" y="0" class="st4 st6 st5">p</tspan><tspan x="282.7" y="0" class="st4 st6 st5">tion f</tspan><tspan x="333.1" y="0" class="st4 st6 st5">r</tspan><tspan x="340.4" y="0" class="st4 st6 st5">om </tspan><tspan x="378.2" y="0" class="st4 st6 st5">t</tspan><tspan x="385.9" y="0" class="st4 st6 st5">h</tspan><tspan x="398.5" y="0" class="st4 st6 st5">e</tspan><tspan x="409.8" y="0" class="st4 st6 st5"> IV</tspan><tspan x="433.9" y="0" class="st4 st6 st5">R </tspan></text>
	<text transform="matrix(1 0 0 1 723.3325 166.4553)"><tspan x="0" y="0" class="st4 st6 st5">to sp</tspan><tspan x="47.6" y="0" class="st4 st6 st5">e</tspan><tspan x="58.9" y="0" class="st4 st6 st5">ak wit</tspan><tspan x="116.5" y="0" class="st4 st6 st5">h</tspan><tspan x="129.1" y="0" class="st4 st6 st5"> a live r</tspan><tspan x="198.6" y="0" class="st4 st6 st5">e</tspan><tspan x="209.9" y="0" class="st4 st6 st5">p</tspan><tspan x="222.3" y="0" class="st4 st6 st5">r</tspan><tspan x="229.7" y="0" class="st4 st6 st5">ese</tspan><tspan x="262.3" y="0" class="st4 st6 st5">nt</tspan><tspan x="282.6" y="0" class="st4 st6 st5">a</tspan><tspan x="294.2" y="0" class="st4 st6 st5">t</tspan><tspan x="301.9" y="0" class="st4 st6 st5">iv</tspan><tspan x="318.2" y="0" class="st4 st6 st5">e,</tspan><tspan x="334.1" y="0" class="st4 st6 st5"> t</tspan><tspan x="347.4" y="0" class="st4 st6 st5">h</tspan><tspan x="360" y="0" class="st4 st6 st5">e</tspan><tspan x="371.3" y="0" class="st4 st6 st5">y</tspan><tspan x="381.9" y="0" class="st4 st6 st5"> will b</tspan><tspan x="440" y="0" class="st4 st6 st5">e </tspan></text>
	<text transform="matrix(1 0 0 1 723.3325 197.6555)"><tspan x="0" y="0" class="st4 st6 st5">conne</tspan><tspan x="58.7" y="0" class="st4 st6 st5">c</tspan><tspan x="69.2" y="0" class="st4 st6 st5">ted to t</tspan><tspan x="139.1" y="0" class="st4 st6 st5">h</tspan><tspan x="151.7" y="0" class="st4 st6 st5">e main </tspan><tspan x="224.4" y="0" class="st4 st6 st5">c</tspan><tspan x="234.7" y="0" class="st4 st6 st5">a</tspan><tspan x="246.3" y="0" class="st4 st6 st5">ll</tspan><tspan x="258.4" y="0" class="st4 st6 st5"> c</tspan><tspan x="274.2" y="0" class="st4 st6 st5">e</tspan><tspan x="285.5" y="0" class="st4 st6 st5">nt</tspan><tspan x="305.9" y="0" class="st4 st6 st5">e</tspan><tspan x="317.1" y="0" class="st4 st6 st5">r </tspan><tspan x="330.1" y="0" class="st4 st6 st5">t</tspan><tspan x="337.8" y="0" class="st4 st6 st5">ha</tspan><tspan x="362" y="0" class="st4 st6 st5">t</tspan><tspan x="369.7" y="0" class="st4 st6 st5"> </tspan><tspan x="375.3" y="0" class="st4 st6 st5">h</tspan><tspan x="387.9" y="0" class="st4 st6 st5">a</tspan><tspan x="399.5" y="0" class="st4 st6 st5">n</tspan><tspan x="412.1" y="0" class="st4 st6 st5">dl</tspan><tspan x="430.6" y="0" class="st4 st6 st5">e</tspan><tspan x="441.9" y="0" class="st4 st6 st5">s </tspan></text>
	<text transform="matrix(1 0 0 1 723.3325 228.8557)"><tspan x="0" y="0" class="st4 st6 st5">c</tspan><tspan x="10.3" y="0" class="st4 st6 st5">a</tspan><tspan x="21.9" y="0" class="st4 st6 st5">r</tspan><tspan x="29.3" y="0" class="st4 st6 st5">d a</tspan><tspan x="58.9" y="0" class="st4 st6 st5">c</tspan><tspan x="69.3" y="0" class="st4 st6 st5">ti</tspan><tspan x="82.5" y="0" class="st4 st6 st5">v</tspan><tspan x="93.2" y="0" class="st4 st6 st5">atio</tspan><tspan x="129.8" y="0" class="st4 st6 st5">n</tspan><tspan x="142.5" y="0" class="st4 st6 st5">s and </tspan><tspan x="200.3" y="0" class="st4 st6 st5">q</tspan><tspan x="212.7" y="0" class="st4 st6 st5">uestions</tspan><tspan x="293.8" y="0" class="st4 st6 st5">,</tspan><tspan x="298.4" y="0" class="st4 st6 st5"> </tspan><tspan x="304.1" y="0" class="st4 st6 st5">F</tspan><tspan x="315.5" y="0" class="st4 st6 st5 st9">T</tspan><tspan x="326.6" y="0" class="st4 st6 st5">O assis</tspan><tspan x="393.7" y="0" class="st4 st6 st5">t</tspan><tspan x="401.4" y="0" class="st4 st6 st5">a</tspan><tspan x="413" y="0" class="st4 st6 st5">n</tspan><tspan x="425.6" y="0" class="st4 st6 st5">ce</tspan><tspan x="447.1" y="0" class="st4 st6 st5">, </tspan></text>
	<text transform="matrix(1 0 0 1 723.3325 260.0554)"><tspan x="0" y="0" class="st4 st6 st5">bene</tspan><tspan x="47.7" y="0" class="st4 st6 st5">ﬁ</tspan><tspan x="60" y="0" class="st4 st6 st5">ts re</tspan><tspan x="102" y="0" class="st4 st6 st5">v</tspan><tspan x="112.8" y="0" class="st4 st6 st5">i</tspan><tspan x="118.3" y="0" class="st4 st6 st5">e</tspan><tspan x="129.6" y="0" class="st4 st6 st5">ws</tspan><tspan x="156.4" y="0" class="st4 st6 st5">,</tspan><tspan x="161" y="0" class="st4 st6 st5"> a</tspan><tspan x="178.2" y="0" class="st4 st6 st5">n</tspan><tspan x="190.8" y="0" class="st4 st6 st5">d </tspan><tspan x="208.8" y="0" class="st4 st6 st5">g</tspan><tspan x="220.6" y="0" class="st4 st6 st5">e</tspan><tspan x="231.9" y="0" class="st4 st6 st5">n</tspan><tspan x="244.6" y="0" class="st4 st6 st5">e</tspan><tspan x="255.9" y="0" class="st4 st6 st5">r</tspan><tspan x="263.2" y="0" class="st4 st6 st5">al su</tspan><tspan x="308.6" y="0" class="st4 st6 st5">pp</tspan><tspan x="333.5" y="0" class="st4 st6 st5">o</tspan><tspan x="345.4" y="0" class="st4 st6 st5">r</tspan><tspan x="353.1" y="0" class="st4 st6 st5">t</tspan><tspan x="360.8" y="0" class="st4 st6 st5"> qu</tspan><tspan x="391.1" y="0" class="st4 st6 st5">e</tspan><tspan x="402.4" y="0" class="st4 st6 st5">stio</tspan><tspan x="437.4" y="0" class="st4 st6 st5">n</tspan><tspan x="450" y="0" class="st4 st6 st5">s</tspan><tspan x="460" y="0" class="st4 st6 st5">. </tspan></text>
	<text transform="matrix(1 0 0 1 723.3325 314.3694)"><tspan x="0" y="0" class="st4 st2 st5">O</tspan><tspan x="15.6" y="0" class="st4 st2 st5">R</tspan></text>
	<text transform="matrix(1 0 0 1 723.3218 368.7365)"><tspan x="0" y="0" class="st7 st2 st3">C</tspan><tspan x="18.5" y="0" class="st7 st2 st3">onduent</tspan></text>
	<text transform="matrix(1 0 0 1 723.3218 399.9367)"><tspan x="0" y="0" class="st4 st6 st5">W</tspan><tspan x="20.2" y="0" class="st4 st6 st5">h</tspan><tspan x="32.8" y="0" class="st4 st6 st5">en </tspan><tspan x="62.4" y="0" class="st4 st6 st5">c</tspan><tspan x="72.7" y="0" class="st4 st6 st5">alle</tspan><tspan x="107.7" y="0" class="st4 st6 st5">r</tspan><tspan x="115.1" y="0" class="st4 st6 st5">s wis</tspan><tspan x="162.9" y="0" class="st4 st6 st5">h</tspan><tspan x="175.4" y="0" class="st4 st6 st5"> to sp</tspan><tspan x="228.7" y="0" class="st4 st6 st5">e</tspan><tspan x="239.9" y="0" class="st4 st6 st5">ak wit</tspan><tspan x="297.6" y="0" class="st4 st6 st5">h</tspan><tspan x="310.1" y="0" class="st4 st6 st5"> a liv</tspan><tspan x="355.3" y="0" class="st4 st6 st5">e </tspan></text>
	<text transform="matrix(1 0 0 1 723.3218 431.1369)"><tspan x="0" y="0" class="st4 st6 st5">re</tspan><tspan x="18.7" y="0" class="st4 st6 st5">p</tspan><tspan x="31.1" y="0" class="st4 st6 st5">rese</tspan><tspan x="71.1" y="0" class="st4 st6 st5">n</tspan><tspan x="83.7" y="0" class="st4 st6 st5">tative a</tspan><tspan x="155.6" y="0" class="st4 st6 st5">f</tspan><tspan x="162.8" y="0" class="st4 st6 st5">t</tspan><tspan x="170.5" y="0" class="st4 st6 st5">er </tspan><tspan x="194.8" y="0" class="st4 st6 st5">L</tspan><tspan x="204.8" y="0" class="st4 st6 st5">AS</tspan><tspan x="229.6" y="0" class="st4 st6 st5">H hours or o</tspan><tspan x="346.4" y="0" class="st4 st6 st5">n</tspan><tspan x="359.1" y="0" class="st4 st6 st5"> w</tspan><tspan x="381.5" y="0" class="st4 st6 st5">ee</tspan><tspan x="404.1" y="0" class="st4 st6 st5">k</tspan><tspan x="414.3" y="0" class="st4 st6 st5">en</tspan><tspan x="438.2" y="0" class="st4 st6 st5">ds</tspan><tspan x="460.6" y="0" class="st4 st6 st5">, </tspan></text>
	<text transform="matrix(1 0 0 1 723.3218 462.3362)"><tspan x="0" y="0" class="st4 st6 st5">t</tspan><tspan x="7.7" y="0" class="st4 st6 st5">h</tspan><tspan x="20.3" y="0" class="st4 st6 st5">ey will b</tspan><tspan x="100.3" y="0" class="st4 st6 st5">e</tspan><tspan x="111.6" y="0" class="st4 st6 st5"> </tspan><tspan x="117.2" y="0" class="st4 st6 st5">r</tspan><tspan x="124.5" y="0" class="st4 st6 st5">outed to a</tspan><tspan x="222.4" y="0" class="st4 st6 st5">f</tspan><tspan x="229.7" y="0" class="st4 st6 st5">t</tspan><tspan x="237.4" y="0" class="st4 st6 st5">e</tspan><tspan x="248.7" y="0" class="st4 st6 st5">r </tspan><tspan x="261.7" y="0" class="st4 st6 st5">h</tspan><tspan x="274.3" y="0" class="st4 st6 st5">ou</tspan><tspan x="298.4" y="0" class="st4 st6 st5">r</tspan><tspan x="305.7" y="0" class="st4 st6 st5">s</tspan><tspan x="315.7" y="0" class="st4 st6 st5">/</tspan><tspan x="323.9" y="0" class="st4 st6 st5">we</tspan><tspan x="352" y="0" class="st4 st6 st5">e</tspan><tspan x="363.3" y="0" class="st4 st6 st5">k</tspan><tspan x="373.5" y="0" class="st4 st6 st5">e</tspan><tspan x="384.8" y="0" class="st4 st6 st5">n</tspan><tspan x="397.5" y="0" class="st4 st6 st5">d </tspan></text>
	<text transform="matrix(1 0 0 1 723.3218 493.5363)"><tspan x="0" y="0" class="st4 st6 st5">re</tspan><tspan x="18.7" y="0" class="st4 st6 st5">p</tspan><tspan x="31.1" y="0" class="st4 st6 st5">rese</tspan><tspan x="71.1" y="0" class="st4 st6 st5">n</tspan><tspan x="83.7" y="0" class="st4 st6 st5">tatives w</tspan><tspan x="170.8" y="0" class="st4 st6 st5">h</tspan><tspan x="183.3" y="0" class="st4 st6 st5">o </tspan><tspan x="200.8" y="0" class="st4 st6 st5">c</tspan><tspan x="211.2" y="0" class="st4 st6 st5">an assist wi</tspan><tspan x="323.5" y="0" class="st4 st6 st5">t</tspan><tspan x="331.2" y="0" class="st4 st6 st5">h </tspan><tspan x="349.4" y="0" class="st4 st6 st5">c</tspan><tspan x="359.8" y="0" class="st4 st6 st5">ar</tspan><tspan x="378.7" y="0" class="st4 st6 st5">d </tspan></text>
	<text transform="matrix(1 0 0 1 723.3218 524.7366)"><tspan x="0" y="0" class="st4 st6 st5">a</tspan><tspan x="11.6" y="0" class="st4 st6 st5">c</tspan><tspan x="22" y="0" class="st4 st6 st5">ti</tspan><tspan x="35.2" y="0" class="st4 st6 st5">v</tspan><tspan x="45.9" y="0" class="st4 st6 st5">ations and </tspan><tspan x="153" y="0" class="st4 st6 st5">g</tspan><tspan x="164.8" y="0" class="st4 st6 st5">en</tspan><tspan x="188.8" y="0" class="st4 st6 st5">e</tspan><tspan x="200.1" y="0" class="st4 st6 st5">r</tspan><tspan x="207.4" y="0" class="st4 st6 st5">al su</tspan><tspan x="252.8" y="0" class="st4 st6 st5">pp</tspan><tspan x="277.7" y="0" class="st4 st6 st5">o</tspan><tspan x="289.6" y="0" class="st4 st6 st5">r</tspan><tspan x="297.3" y="0" class="st4 st6 st5">t</tspan><tspan x="305" y="0" class="st4 st6 st5"> on</tspan><tspan x="335.2" y="0" class="st4 st6 st5">l</tspan><tspan x="341.2" y="0" class="st4 st6 st5 st9">y</tspan><tspan x="350.9" y="0" class="st4 st6 st5">. I</tspan><tspan x="366.3" y="0" class="st4 st6 st5">f</tspan><tspan x="373.3" y="0" class="st4 st6 st5"> </tspan><tspan x="378.9" y="0" class="st4 st6 st5">C</tspan><tspan x="391.3" y="0" class="st4 st6 st5">ondu</tspan><tspan x="440.4" y="0" class="st4 st6 st5">e</tspan><tspan x="451.7" y="0" class="st4 st6 st5">n</tspan><tspan x="464.4" y="0" class="st4 st6 st5">t </tspan></text>
	<text transform="matrix(1 0 0 1 723.3218 555.9368)"><tspan x="0" y="0" class="st4 st6 st5">is no</tspan><tspan x="45.5" y="0" class="st4 st6 st5">t</tspan><tspan x="53.2" y="0" class="st4 st6 st5"> able to assist</tspan><tspan x="185.5" y="0" class="st4 st6 st5">,</tspan><tspan x="190.2" y="0" class="st4 st6 st5"> </tspan><tspan x="195.8" y="0" class="st4 st6 st5">c</tspan><tspan x="206.1" y="0" class="st4 st6 st5">a</tspan><tspan x="217.7" y="0" class="st4 st6 st5">l</tspan><tspan x="223.7" y="0" class="st4 st6 st5">le</tspan><tspan x="241.1" y="0" class="st4 st6 st5">r</tspan><tspan x="248.4" y="0" class="st4 st6 st5">s wi</tspan><tspan x="286.3" y="0" class="st4 st6 st5">l</tspan><tspan x="292.3" y="0" class="st4 st6 st5">l b</tspan><tspan x="316.4" y="0" class="st4 st6 st5">e</tspan><tspan x="327.7" y="0" class="st4 st6 st5"> ins</tspan><tspan x="361.3" y="0" class="st4 st6 st5">tr</tspan><tspan x="376.4" y="0" class="st4 st6 st5">u</tspan><tspan x="388.6" y="0" class="st4 st6 st5">c</tspan><tspan x="399.1" y="0" class="st4 st6 st5">te</tspan><tspan x="418.1" y="0" class="st4 st6 st5">d </tspan><tspan x="436.1" y="0" class="st4 st6 st5">t</tspan><tspan x="443.8" y="0" class="st4 st6 st5">o </tspan></text>
	<text transform="matrix(1 0 0 1 723.3218 587.137)"><tspan x="0" y="0" class="st4 st6 st5">c</tspan><tspan x="10.3" y="0" class="st4 st6 st5">a</tspan><tspan x="21.9" y="0" class="st4 st6 st5">l</tspan><tspan x="27.9" y="0" class="st4 st6 st5">l back t</tspan><tspan x="97.5" y="0" class="st4 st6 st5">h</tspan><tspan x="110.1" y="0" class="st4 st6 st5">e ne</tspan><tspan x="151" y="0" class="st4 st6 st5">x</tspan><tspan x="161.8" y="0" class="st4 st6 st5">t busi</tspan><tspan x="215.1" y="0" class="st4 st6 st5">n</tspan><tspan x="227.8" y="0" class="st4 st6 st5">ess da</tspan><tspan x="288.5" y="0" class="st4 st6 st5">y</tspan><tspan x="299.1" y="0" class="st4 st6 st5"> du</tspan><tspan x="329.4" y="0" class="st4 st6 st5">r</tspan><tspan x="336.7" y="0" class="st4 st6 st5">i</tspan><tspan x="342.2" y="0" class="st4 st6 st5">n</tspan><tspan x="354.8" y="0" class="st4 st6 st5">g </tspan><tspan x="372.3" y="0" class="st4 st6 st5">L</tspan><tspan x="382.2" y="0" class="st4 st6 st5">A</tspan><tspan x="395.5" y="0" class="st4 st6 st5">S</tspan><tspan x="407" y="0" class="st4 st6 st5">H hou</tspan><tspan x="464.2" y="0" class="st4 st6 st5">r</tspan><tspan x="471.6" y="0" class="st4 st6 st5">s</tspan><tspan x="481.5" y="0" class="st4 st6 st5">.</tspan></text>
	<g>
		<g>
			<defs>
				<rect id="SVGID_1_" x="602.6" y="34" width="124.5" height="112.5"/>
			</defs>
			<clipPath id="SVGID_00000137134076075724873830000002710927760130999200_">
				<use xlink:href="#SVGID_1_"  style="overflow:visible;"/>
			</clipPath>
			<path style="clip-path:url(#SVGID_00000137134076075724873830000002710927760130999200_);fill:#F26937;" d="M709.5,134.9
				c-8.3-8.6-18.5-14.6-29.5-17.5c-0.3-0.2-0.6-0.2-0.9-0.2h-1c0,0-0.1,0-0.1,0l4.5,10.3l-9.4,18.1h35c1,0,1.9-0.9,1.9-2v-7.2
				C710.1,135.8,709.9,135.3,709.5,134.9"/>
			<path style="clip-path:url(#SVGID_00000137134076075724873830000002710927760130999200_);fill:#F26937;" d="M651.6,117.2
				c0,0-0.1,0-0.1,0h-0.7c-0.1,0-0.3,0-0.4,0.1c-11.2,2.8-21.7,8.9-30.2,17.7c-0.4,0.4-0.6,0.9-0.6,1.4v7.2c0,1.1,0.9,2,1.9,2h34.8
				l-9.2-17.8L651.6,117.2z"/>
			<path style="clip-path:url(#SVGID_00000137134076075724873830000002710927760130999200_);fill:#F26937;" d="M664.2,100.2
				c-1.1,0-2,0.6-2.5,1.6c-11.2-1.2-14.8-11.5-14.8-11.5c0,0.2,0,0.2,0,0h-0.1c-1.9,0-3.5-1.8-3.5-3.9c0-1.6,0.9-3,2.1-3.6
				c0,0,5.3-11.1,7.9-24.1c0,0,2.5,20.4,30.8,23.9c0,0,0,0.1,0,0.1c1.2,0.6,2.1,2,2.1,3.6c0,2.2-1.6,3.9-3.5,3.9h-0.1
				c-0.4,5.8-3,11.6-6.9,15.6v5c13.6-0.7,22.9-7.2,22.9-7.2c-12.8-8.3-1.8-36.2-16-49.3c-14.2-13.1-17.9-4.6-17.9-4.6
				s-3.7-8.5-17.9,4.6c-14.2,13.1-3.1,41-16,49.3c0,0,9.2,6.5,22.8,7.2v-5.1c-2.1-2.2-3.8-5-5-7.9c2.5,2.9,6.6,5.9,12.9,6.6
				c0.4,1.1,1.4,1.8,2.6,1.8c1.6,0,2.8-1.3,2.8-3C667,101.5,665.8,100.2,664.2,100.2"/>
		</g>
		<g>
			<defs>
				<rect id="SVGID_00000078018885059147896120000002657888776343952287_" x="1352.4" y="130" width="124.5" height="112.5"/>
			</defs>
			<clipPath id="SVGID_00000155826529304987802020000017419909442460558738_">
				<use xlink:href="#SVGID_00000078018885059147896120000002657888776343952287_"  style="overflow:visible;"/>
			</clipPath>
			<path style="clip-path:url(#SVGID_00000155826529304987802020000017419909442460558738_);fill:#76004B;" d="M1459.4,230.9
				c-8.3-8.6-18.5-14.6-29.5-17.5c-0.3-0.2-0.6-0.2-0.9-0.2h-1c0,0-0.1,0-0.1,0l4.5,10.3l-9.4,18.1h35c1,0,1.9-0.9,1.9-2v-7.2
				C1459.9,231.8,1459.7,231.3,1459.4,230.9"/>
			<path style="clip-path:url(#SVGID_00000155826529304987802020000017419909442460558738_);fill:#76004B;" d="M1401.4,213.2
				c0,0-0.1,0-0.1,0h-0.7c-0.1,0-0.3,0-0.4,0.1c-11.2,2.8-21.7,8.9-30.2,17.7c-0.4,0.4-0.6,0.9-0.6,1.4v7.2c0,1.1,0.9,2,1.9,2h34.8
				l-9.2-17.8L1401.4,213.2z"/>
			<path style="clip-path:url(#SVGID_00000155826529304987802020000017419909442460558738_);fill:#76004B;" d="M1414.1,196.2
				c-1.1,0-2,0.6-2.5,1.6c-11.2-1.2-14.8-11.5-14.8-11.5c0,0.2,0,0.2,0,0h-0.1c-1.9,0-3.5-1.8-3.5-3.9c0-1.6,0.9-3,2.1-3.6
				c0,0,5.3-11.1,7.9-24.1c0,0,2.5,20.4,30.8,23.9c0,0,0,0.1,0,0.1c1.2,0.6,2.1,2,2.1,3.6c0,2.2-1.6,3.9-3.5,3.9h-0.1
				c-0.4,5.8-3,11.6-6.9,15.6v5c13.6-0.7,22.9-7.2,22.9-7.2c-12.8-8.3-1.8-36.2-16-49.3c-14.2-13.1-17.9-4.6-17.9-4.6
				s-3.7-8.5-17.9,4.6c-14.2,13.1-3.1,41-16,49.3c0,0,9.2,6.5,22.8,7.2v-5.1c-2.1-2.2-3.8-5-5-7.9c2.5,2.9,6.6,5.9,12.9,6.6
				c0.4,1.1,1.4,1.8,2.6,1.8c1.6,0,2.8-1.3,2.8-3C1416.9,197.6,1415.6,196.2,1414.1,196.2"/>
		</g>
		<g>
			<defs>
				<rect id="SVGID_00000143605459649370051690000006607397846991672207_" x="602.6" y="328.7" width="124.5" height="112.5"/>
			</defs>
			<clipPath id="SVGID_00000103946987726811583150000007835715648507242670_">
				<use xlink:href="#SVGID_00000143605459649370051690000006607397846991672207_"  style="overflow:visible;"/>
			</clipPath>
			<path style="clip-path:url(#SVGID_00000103946987726811583150000007835715648507242670_);fill:#F26937;" d="M709.5,429.6
				c-8.3-8.6-18.5-14.6-29.5-17.5c-0.3-0.2-0.6-0.2-0.9-0.2h-1c0,0-0.1,0-0.1,0l4.5,10.3l-9.4,18.1h35c1,0,1.9-0.9,1.9-2v-7.2
				C710.1,430.5,709.9,430,709.5,429.6"/>
			<path style="clip-path:url(#SVGID_00000103946987726811583150000007835715648507242670_);fill:#F26937;" d="M651.6,411.9
				c0,0-0.1,0-0.1,0h-0.7c-0.1,0-0.3,0-0.4,0.1c-11.2,2.8-21.7,8.9-30.2,17.7c-0.4,0.4-0.6,0.9-0.6,1.4v7.2c0,1.1,0.9,2,1.9,2h34.8
				l-9.2-17.8L651.6,411.9z"/>
			<path style="clip-path:url(#SVGID_00000103946987726811583150000007835715648507242670_);fill:#F26937;" d="M664.2,394.9
				c-1.1,0-2,0.6-2.5,1.6C650.6,395.3,647,385,647,385c0,0.2,0,0.2,0,0h-0.1c-1.9,0-3.5-1.8-3.5-3.9c0-1.6,0.9-3,2.1-3.6
				c0,0,5.3-11.1,7.9-24.1c0,0,2.5,20.4,30.8,23.9c0,0,0,0.1,0,0.1c1.2,0.6,2.1,2,2.1,3.6c0,2.2-1.6,3.9-3.5,3.9h-0.1
				c-0.4,5.8-3,11.6-6.9,15.6v5c13.6-0.7,22.9-7.2,22.9-7.2c-12.8-8.3-1.8-36.2-16-49.3c-14.2-13.1-17.9-4.6-17.9-4.6
				s-3.7-8.5-17.9,4.6c-14.2,13.1-3.1,41-16,49.3c0,0,9.2,6.5,22.8,7.2v-5.1c-2.1-2.2-3.8-5-5-7.9c2.5,2.9,6.6,5.9,12.9,6.6
				c0.4,1.1,1.4,1.8,2.6,1.8c1.6,0,2.8-1.3,2.8-3C667,396.3,665.8,394.9,664.2,394.9"/>
		</g>
		<path class="st7" d="M488.2,222.6l50.3,0l0-21.9l36.7,39.9l-36.7,39.7v-23.4h-7.8l-42,0l0,8.5l42,0v20.4c0,2.5,1.1,4.5,3.1,5.4
			c0.8,0.4,1.7,0.5,2.6,0.5c1.7,0,3.3-0.6,4.3-1.7l40.5-43.8c2.8-3.1,2.8-8,0-11.1l-40.5-44c-0.9-1-2.4-1.5-4-1.5c-1,0-2,0.2-3,0.6
			c-1.1,0.5-3.1,1.8-3.1,4.4l0,19.5l-42.7,0L488.2,222.6z"/>
		<path class="st7" d="M1255.4,222.6l50.3,0l0-21.9l36.7,39.9l-36.7,39.7v-23.4h-7.8l-42,0l0,8.5l42,0v20.4c0,2.5,1.1,4.5,3.1,5.4
			c0.8,0.4,1.7,0.5,2.6,0.5c1.7,0,3.3-0.6,4.3-1.7l40.5-43.8c2.8-3.1,2.8-8,0-11.1l-40.5-44c-0.9-1-2.4-1.5-4-1.5c-1,0-2,0.2-3,0.6
			c-1.1,0.5-3.1,1.8-3.1,4.4l0,19.5l-42.7,0L1255.4,222.6z"/>
		<path class="st1" d="M60.4,180.1c1.1-0.7,1.4-2.1,0.7-3.2c-0.7-1.1-2.1-1.4-3.2-0.7c-0.3,0.2-7.2,4.7-7.2,16.1
			c0,11.2,6.7,16.7,7,16.9c0.4,0.3,0.9,0.5,1.4,0.5c0.7,0,1.4-0.3,1.8-0.9c0.8-1,0.6-2.5-0.4-3.2c-0.1,0-5.3-4.3-5.3-13.3
			C55.4,183.6,60.3,180.2,60.4,180.1"/>
		<path class="st1" d="M55.4,215.5c-0.1-0.1-10.8-7.7-10.8-23.5c0-15.6,10.2-21.5,10.6-21.8c1.1-0.6,1.5-2,0.9-3.1
			c-0.6-1.1-2-1.5-3.1-0.9c-0.5,0.3-13,7.4-13,25.8c0,18.3,12.2,27,12.8,27.3c0.4,0.3,0.9,0.4,1.3,0.4c0.7,0,1.5-0.3,1.9-1
			C56.7,217.7,56.4,216.2,55.4,215.5"/>
		<path class="st1" d="M127.7,193.3c0-11.2-6.7-16.7-7-16.9c-1-0.8-2.5-0.6-3.2,0.4c-0.8,1-0.6,2.5,0.4,3.2c0.1,0,5.3,4.3,5.3,13.3
			c0,8.7-4.9,12.1-5.1,12.2c-1.1,0.7-1.4,2.1-0.7,3.2c0.4,0.7,1.2,1.1,2,1.1c0.4,0,0.8-0.1,1.2-0.4
			C120.8,209.2,127.7,204.7,127.7,193.3"/>
		<path class="st1" d="M125.7,166.3c-1.1-0.7-2.5-0.5-3.2,0.6c-0.7,1-0.5,2.5,0.6,3.2c0.1,0.1,10.8,7.7,10.8,23.5
			c0,15.6-10.2,21.5-10.6,21.8c-1.1,0.6-1.5,2-0.9,3.1c0.4,0.8,1.2,1.2,2,1.2c0.4,0,0.8-0.1,1.1-0.3c0.5-0.3,13-7.4,13-25.8
			C138.5,175.3,126.2,166.6,125.7,166.3"/>
		<path class="st1" d="M108.5,231.7c0,1.9-1.5,3.4-3.4,3.4H73.4c-1.9,0-3.4-1.5-3.4-3.4v-77.9c0-1.9,1.5-3.4,3.4-3.4l4.9,0
			c0.2,0,0.4,0.2,0.4,0.4c0.2,1.6,1.6,2.9,3.2,2.9h14.7c1.7,0,3-1.3,3.2-2.9c0-0.2,0.2-0.4,0.4-0.4l4.9,0c1.9,0,3.4,1.5,3.4,3.4
			V231.7z M104.7,146.6h-4.7H78.5h-4.7c-4.2,0-7.6,3.4-7.6,7.6v77c0,4.2,3.4,7.6,7.6,7.6h30.9c4.2,0,7.6-3.4,7.6-7.6v-77
			C112.3,150.1,108.9,146.6,104.7,146.6"/>
	</g>
</g>
</svg>
