<svg xmlns="http://www.w3.org/2000/svg" xmlns:xlink="http://www.w3.org/1999/xlink" width="77" height="77.001" viewBox="0 0 77 77.001">
            <defs>
            <clipPath id="clip-path">
                <rect id="Rectangle_146" data-name="Rectangle 146" width="77" height="77" transform="translate(0 0.001)" fill="none"/>
            </clipPath>
            <clipPath id="clip-path-2">
                <path id="Path_894" data-name="Path 894" d="M342.878,191.178c3.736-7.865,9.113-6.043,14.015-4.22,2.345.872,4.581,1.744,6.478,1.555-2.083-1.066-3.052-4.892-8.236-5.813a9.391,9.391,0,0,0-1.649-.139,10.749,10.749,0,0,0-10.608,8.617" transform="translate(-342.878 -182.561)" fill="none"/>
            </clipPath>
            <linearGradient id="linear-gradient" x1="-0.942" y1="5.5" x2="-0.94" y2="5.5" gradientUnits="objectBoundingBox">
                <stop offset="0" stop-color="orange"/>
                <stop offset="0.195" stop-color="#fd9b04"/>
                <stop offset="0.519" stop-color="#f7810f"/>
                <stop offset="0.931" stop-color="#ef5822"/>
                <stop offset="1" stop-color="#ee5126"/>
            </linearGradient>
            <clipPath id="clip-path-3">
                <path id="Path_895" data-name="Path 895" d="M357.092,415.554c-2.345-.872-4.58-1.744-6.477-1.556,2.084,1.064,3.052,4.892,8.236,5.812a9.6,9.6,0,0,0,2.75.084,10.749,10.749,0,0,0,9.508-8.561c-3.737,7.866-9.114,6.042-14.016,4.221" transform="translate(-350.615 -411.333)" fill="none"/>
            </clipPath>
            <linearGradient id="linear-gradient-2" x1="-0.964" y1="3.979" x2="-0.961" y2="3.979" xlink:href="#linear-gradient"/>
            </defs>
            <g id="Group_1777" data-name="Group 1777" transform="translate(-0.813 -0.813)">
            <rect id="Rectangle_145" data-name="Rectangle 145" width="77" height="77" rx="9" transform="translate(0.813 0.813)" fill="#5e0c3c"/>
            <g id="Group_1770" data-name="Group 1770" transform="translate(0.813 0.813)">
                <g id="Group_1769" data-name="Group 1769" transform="translate(0 0)" clip-path="url(#clip-path)">
                <path id="Path_889" data-name="Path 889" d="M251.309,89.133A21.581,21.581,0,0,0,229.737,110.7a22.587,22.587,0,0,0,4.468,13.151l17.1,23.958,17.1-23.961a22.615,22.615,0,0,0,4.465-13.148,21.571,21.571,0,0,0-21.569-21.565" transform="translate(-213.175 -83.27)" fill="#fff" fill-rule="evenodd"/>
                <path id="Path_890" data-name="Path 890" d="M266.729,763.841c11.212,0,20.3-3.241,20.3-7.238,0-2.936-4.9-5.464-11.949-6.6l-1.47,2.059c4.961.839,8.361,2.557,8.361,4.54,0,2.809-6.825,5.087-15.243,5.087s-15.243-2.277-15.243-5.087c0-1.979,3.386-3.694,8.331-4.535l-1.463-2.06c-7.034,1.137-11.926,3.662-11.926,6.6,0,4,9.089,7.238,20.3,7.238" transform="translate(-228.595 -693.853)" fill="#ed4a17" fill-rule="evenodd"/>
                <path id="Path_891" data-name="Path 891" d="M387.6,331.594h-3.639a.272.272,0,0,1-.208-.1.269.269,0,0,1-.063-.221l.063-.389a.276.276,0,0,1,.272-.233h3.67a1.914,1.914,0,0,0,1.135-.307,1.22,1.22,0,0,0,.5-.83l.149-.821a1.193,1.193,0,0,0,.02-.209.514.514,0,0,0-.207-.485,1.724,1.724,0,0,0-.933-.174h-1.79a.274.274,0,0,1-.21-.1.277.277,0,0,1-.062-.221l.062-.389a.275.275,0,0,1,.273-.232h1.782a1.947,1.947,0,0,0,1.1-.24,1.123,1.123,0,0,0,.458-.754l.149-.819a1.385,1.385,0,0,0,.019-.22c0-.408-.177-.519-.33-.57a3.848,3.848,0,0,0-.867-.062h-3.65a.273.273,0,0,1-.27-.328l.074-.388a.276.276,0,0,1,.272-.222h3.65a2.912,2.912,0,0,1,1.568.325,1.3,1.3,0,0,1,.552,1.168,2.767,2.767,0,0,1-.029.46l-.149.784a2,2,0,0,1-.289.738,1.672,1.672,0,0,1-.615.612,1.13,1.13,0,0,1,.224.226,1.325,1.325,0,0,1,.215.795,2.063,2.063,0,0,1-.03.374l-.148.785a2.389,2.389,0,0,1-.933,1.488,2.915,2.915,0,0,1-1.788.555" transform="translate(-355.406 -299.605)" fill="#323133"/>
                <path id="Path_892" data-name="Path 892" d="M483.2,327.139l-.43,2.363a2.154,2.154,0,0,0-.034.382.615.615,0,0,0,.28.545,1.676,1.676,0,0,0,.946.224h2.27a1.694,1.694,0,0,0,1.044-.316,1.257,1.257,0,0,0,.506-.8l.237-1.305c0-.007.007-.054.007-.232,0-.4-.14-.857-1.237-.857Zm2.954,4.455H483.87a2.524,2.524,0,0,1-1.487-.422,1.382,1.382,0,0,1-.641-1.167,3.643,3.643,0,0,1,.065-.6l.742-4.132a2.22,2.22,0,0,1,.927-1.466,3.083,3.083,0,0,1,1.828-.524h4.285a.277.277,0,0,1,.273.32l-.061.386a.275.275,0,0,1-.273.232h-4.292a2.034,2.034,0,0,0-1.078.239,1.286,1.286,0,0,0-.619.9l-.152.843h3.444a2.5,2.5,0,0,1,1.652.485,1.546,1.546,0,0,1,.541,1.243,2.537,2.537,0,0,1-.026.381l-.25,1.348a2.174,2.174,0,0,1-.9,1.4,2.8,2.8,0,0,1-1.694.532" transform="translate(-446.004 -299.605)" fill="#323133"/>
                <path id="Path_893" data-name="Path 893" d="M588.8,324.223a2.223,2.223,0,0,0-1.3.289,1.6,1.6,0,0,0-.575,1.027l-.72,3.932a2.086,2.086,0,0,0-.032.35.755.755,0,0,0,.341.668,1.928,1.928,0,0,0,1.021.165h1.624a2.221,2.221,0,0,0,1.287-.29,1.5,1.5,0,0,0,.561-.991l.732-3.933a2.135,2.135,0,0,0,.032-.36.81.81,0,0,0-.217-.594c-.119-.119-.406-.262-1.119-.262Zm.26,7.371h-1.58a2.554,2.554,0,0,1-1.85-.562,1.5,1.5,0,0,1-.45-1.1,2.9,2.9,0,0,1,.04-.523l.741-3.994a2.464,2.464,0,0,1,.942-1.586,3.279,3.279,0,0,1,1.986-.543h1.58a2.551,2.551,0,0,1,1.851.575,1.5,1.5,0,0,1,.451,1.109,3.125,3.125,0,0,1-.054.546l-.728,3.981a2.417,2.417,0,0,1-.938,1.565,3.322,3.322,0,0,1-1.991.532" transform="translate(-541.569 -299.605)" fill="#323133"/>
                </g>
            </g>
            <g id="Group_1772" data-name="Group 1772" transform="translate(29.654 14.386)">
                <g id="Group_1771" data-name="Group 1771" clip-path="url(#clip-path-2)">
                <rect id="Rectangle_147" data-name="Rectangle 147" width="20.493" height="8.617" transform="translate(0 0)" fill="url(#linear-gradient)"/>
            </g>
            </g>
            <g id="Group_1774" data-name="Group 1774" transform="translate(30.329 32.6)">
                <g id="Group_1773" data-name="Group 1773" clip-path="url(#clip-path-3)">
                <rect id="Rectangle_148" data-name="Rectangle 148" width="20.493" height="8.674" transform="translate(0 0)" fill="url(#linear-gradient-2)"/>
                </g>
            </g>
            <g id="Group_1776" data-name="Group 1776" transform="translate(0.813 0.813)">
                <g id="Group_1775" data-name="Group 1775" transform="translate(0 0)" clip-path="url(#clip-path)">
                <path id="Path_896" data-name="Path 896" d="M267.629,300.892c-1.46,0-1.993-.286-1.993-1.326a11.007,11.007,0,0,1,.3-1.936c.444-2.1,2.024-7.6,2.024-7.6l6.583-.018c.242,0,.238.047.193.252l-.122.487c-.053.187-.074.252-.316.252l-5.26,0s-.706,2.367-1.049,3.764h4.979c.241,0,.221.046.176.251l-.121.488c-.049.191-.055.252-.3.252H267.75c-.362,1.53-.543,2.387-.644,2.993a4.61,4.61,0,0,0-.059.655c.019.335.281.487.905.487h4.632c.211,0,.2.041.16.253l-.1.487c-.04.169-.065.252-.287.252Z" transform="translate(-246.342 -268.868)" fill="#5e0c3c"/>
                </g>
            </g>
            </g>
        </svg>        